<?xml version='1.0' encoding='utf-8'?>
<svg xmlns="http://www.w3.org/2000/svg" width="1920" height="1080" viewBox="0 0 1920 1080" data-theme="light">
  <style>
        @font-face {
            font-family: 'Inter';
            src: url('assets/fonts/Inter-Regular.ttf') format('truetype');
            font-weight: 400;
            font-style: normal;
            font-display: swap;
        }
        @font-face {
            font-family: 'Inter';
            src: url('assets/fonts/Inter-Bold.ttf') format('truetype');
            font-weight: 600;
            font-style: normal;
            font-display: swap;
        }
        @font-face {
            font-family: 'Inter';
            src: url('assets/fonts/Inter-Bold.ttf') format('truetype');
            font-weight: 800;
            font-style: normal;
            font-display: swap;
        }
        
:root {
    --background: #f8fafc;
    --panel: #ffffff;
    --primary-text: #0f172a;
    --muted-text: #64748b;
    --inverse-text: #ffffff;
    --border: #e2e8f0;
    --shadow-color: #000000;
    --icon-pad-bg: #1e293b;
    --art-glow: #0891b2;
    --art-glow-opacity: 0.10;
    --art-sheen: #ffffff;
    --art-sheen-opacity: 0.34;
    --art-shadow: #0f172a;
    --art-shadow-opacity: 0.14;
    --art-muted-line: #94a3b8;
    --art-panel-tint: #f1f5f9;
    --font-family: 'Inter', 'Segoe UI', 'Kalam', Roboto, Helvetica, Arial, sans-serif;
    --radius-xl: 16px;
    --font-family-headline: 'Inter', 'Segoe UI', 'Kalam', Roboto, Helvetica, Arial, sans-serif;
    --font-family-body: 'Inter', 'Segoe UI', 'Kalam', Roboto, Helvetica, Arial, sans-serif;
    --font-heading: 'Inter', 'Segoe UI', 'Kalam', Roboto, Helvetica, Arial, sans-serif;
    --font-body: 'Inter', 'Segoe UI', 'Kalam', Roboto, Helvetica, Arial, sans-serif;
    --font-size-h1: 56px;
    --font-size-h2: 40px;
    --font-size-h3: 28px;
    --font-size-body: 24px;
    --font-size-caption: 18px;
    --secondary-text: var(--muted-text);
    --panel-border: var(--border);
    --font-weight-normal: 400;
    --font-weight-medium: 500;
    --font-weight-semibold: 600;
    --font-weight-bold: 700;
    --spacing-gutter-pct: 0.07;
    --spacing-top-pct: 0.15;
    --spacing-bottom-pct: 0.07;
    --spacing-title-y-pct: 0.055;
    --accent-1: #0891b2;
    --accent-2: #db2777;
    --accent-3: #ca8a04;
    --accent-4: #65a30d;
    --accent-5: #ea580c;
    --accent-6: #9333ea;
}
:root[data-theme="dark"] {
    --background: #0f172a;
    --panel: #1e293b;
    --primary-text: #f1f5f9;
    --muted-text: #94a3b8;
    --inverse-text: #0f172a;
    --border: #334155;
    --shadow-color: #000000;
    --icon-pad-bg: #1e293b;
    --art-glow: #7dd3fc;
    --art-glow-opacity: 0.18;
    --art-sheen: #ffffff;
    --art-sheen-opacity: 0.18;
    --art-shadow: #000000;
    --art-shadow-opacity: 0.28;
    --art-muted-line: #64748b;
    --art-panel-tint: #1e293b;
    --accent-1: #22d3ee;
    --accent-2: #f472b6;
    --accent-3: #facc15;
    --accent-4: #a3e635;
    --accent-5: #fb923c;
    --accent-6: #c084fc;
}
:root[data-theme="light"] {
    --background: #f8fafc;
    --panel: #ffffff;
    --primary-text: #0f172a;
    --muted-text: #64748b;
    --inverse-text: #ffffff;
    --border: #e2e8f0;
    --shadow-color: #000000;
    --icon-pad-bg: #1e293b;
    --art-glow: #0891b2;
    --art-glow-opacity: 0.10;
    --art-sheen: #ffffff;
    --art-sheen-opacity: 0.34;
    --art-shadow: #0f172a;
    --art-shadow-opacity: 0.14;
    --art-muted-line: #94a3b8;
    --art-panel-tint: #f1f5f9;
    --accent-1: #0891b2;
    --accent-2: #db2777;
    --accent-3: #ca8a04;
    --accent-4: #65a30d;
    --accent-5: #ea580c;
    --accent-6: #9333ea;
}</style>
  <rect x="0" y="0" width="1.92E+3" height="1.08E+3" fill="#252a34" stroke="none" id="programmatic_background"/>
  <line id="HEADER_DECOR" x1="960.0" x2="1080.0" y1="135.0" y2="135.0" stroke="var(--accent-1)" stroke-width="6" stroke-linecap="round"/>
  <defs>
    <pattern id="svg39c18d90-napkin-hatch" patternUnits="userSpaceOnUse" width="12" height="12">
      <path d="M -3 12 L 12 -3 M 0 15 L 15 0" fill="none" stroke="var(--primary-text)" stroke-width="1" stroke-opacity="0.05"/>
    </pattern>
    <filter id="svg39c18d90-shadow" x="-30%" y="-30%" width="160%" height="160%">
      <feDropShadow dx="0" dy="3" stdDeviation="4" flood-color="#000000" flood-opacity="0.10"/>
      <feDropShadow dx="0" dy="10" stdDeviation="16" flood-color="#000000" flood-opacity="0.12"/>
    </filter>
    <radialGradient id="svg39c18d90-universal-edge-vignette" cx="50%" cy="50%" r="72%">
      <stop offset="0%" stop-color="var(--background)" stop-opacity="0"/>
      <stop offset="72%" stop-color="var(--background)" stop-opacity="0.12"/>
      <stop offset="100%" stop-color="var(--primary-text)" stop-opacity="0.08"/>
    </radialGradient>
    <linearGradient id="svg39c18d90-universal-surface-sheen" x1="0%" y1="0%" x2="100%" y2="100%">
      <stop offset="0%" stop-color="var(--art-sheen)" stop-opacity="var(--art-sheen-opacity)"/>
      <stop offset="46%" stop-color="var(--art-sheen)" stop-opacity="0.035"/>
      <stop offset="100%" stop-color="var(--art-panel-tint)" stop-opacity="0.14"/>
    </linearGradient>
    <radialGradient id="svg39c18d90-universal-icon-aura" cx="50%" cy="42%" r="64%">
      <stop offset="0%" stop-color="var(--art-glow)" stop-opacity="var(--art-glow-opacity)"/>
      <stop offset="100%" stop-color="var(--background)" stop-opacity="0"/>
    </radialGradient>
    <filter id="svg39c18d90-text-glow" x="-20%" y="-20%" width="140%" height="140%">
      <feDropShadow dx="0" dy="0" stdDeviation="2" flood-color="#000000" flood-opacity="0.4"/>
    </filter>
    <marker id="svg39c18d90-arrowhead" markerWidth="10" markerHeight="7" refX="9" refY="3.5" orient="auto" markerUnits="strokeWidth">
      <polygon points="0 0, 10 3.5, 0 7" fill="var(--muted-text)" opacity="0.6"/>
    </marker>
  </defs>
  <rect id="CANVAS_BG" width="100%" height="100%" fill="var(--background)"/>
  <rect width="100%" height="100%" fill="url(#svg39c18d90-napkin-hatch)"/>
  <rect id="UNIVERSAL_EDGE_VIGNETTE" width="100%" height="100%" fill="url(#svg39c18d90-universal-edge-vignette)" opacity="0.62"/>
  <text id="TITLE" x="960.0" y="59" text-anchor="middle" font-weight="800" font-size="56" fill="#0f172a" style="font-size: 60px; font-family: Inter, Segoe UI, Kalam, Roboto, Helvetica, Arial, sans-serif; font-weight: 700; letter-spacing:-1.2px;" data-final-font-size="60">
    <tspan x="960.0" dy="68.00px">Perceptual Illusion Factors</tspan>
  </text>
  <rect id="TITLE_FRAME" x="134" y="59" width="1652" height="103" fill="none"/>
  <g id="FIELD">
    <rect x="190" y="250" width="650" height="270" rx="34" fill="var(--accent-1)" fill-opacity="0.08" stroke="var(--accent-1)" stroke-width="2" stroke-opacity="0.22"/>
    <rect x="1080" y="250" width="650" height="270" rx="34" fill="var(--accent-2)" fill-opacity="0.08" stroke="var(--accent-2)" stroke-width="2" stroke-opacity="0.22"/>
    <rect x="190" y="680" width="650" height="270" rx="34" fill="var(--accent-4)" fill-opacity="0.08" stroke="var(--accent-4)" stroke-width="2" stroke-opacity="0.18"/>
    <rect x="1080" y="680" width="650" height="270" rx="34" fill="var(--accent-5)" fill-opacity="0.08" stroke="var(--accent-5)" stroke-width="2" stroke-opacity="0.18"/>
    <line x1="960" y1="226" x2="960" y2="974" stroke="var(--primary-text)" stroke-width="11" stroke-opacity="0.20"/>
    <line x1="176" y1="600" x2="1744" y2="600" stroke="var(--primary-text)" stroke-width="11" stroke-opacity="0.20"/>
    <path d="M 960 534 L 1028 600 L 960 666 L 892 600 Z" fill="var(--panel)" fill-opacity="0.94" stroke="var(--primary-text)" stroke-width="4" stroke-opacity="0.28"/>
    <circle cx="960" cy="600" r="38" fill="var(--background)" stroke="var(--primary-text)" stroke-width="4"/>
    <g transform="translate(490, 384)">
      <rect id="ITEM_1_BG" x="-280" y="-110" width="560" height="220" rx="30" fill="var(--panel)" fill-opacity="0.95" stroke="var(--accent-1)" stroke-width="3" filter="url(#svg39c18d90-shadow)"/>
      <rect x="-280" y="-110" width="560" height="220" rx="18" fill="url(#svg39c18d90-universal-surface-sheen)" opacity="0.84"/>
      <rect x="226" y="-82" width="16" height="164" rx="8" fill="var(--accent-1)" fill-opacity="0.22"/>
      <circle cx="198" cy="-16" r="78" fill="none" stroke="var(--accent-1)" stroke-width="2.5" stroke-opacity="0.14"/>
      <text id="ITEM_1_HEAD" x="-220.0" y="-82.0" text-anchor="start" font-weight="700" font-size="29" fill="var(--primary-text)" data-bg-id="ITEM_1_BG" fill-opacity="1.0" style="font-size: 30px; font-family: Inter, Segoe UI, Kalam, Roboto, Helvetica, Arial, sans-serif; font-weight: 700; letter-spacing:-0.4px;" data-final-font-size="30">
        <tspan x="-220.0" dy="29.91px">No Visible Curtain</tspan>
      </text>
      <rect id="ITEM_1_HEAD_FRAME" x="-220" y="-82" width="350" height="38" fill="none"/>
      <text id="ITEM_1_BODY" x="-220.0" y="-2.0" text-anchor="start" font-size="20" fill="var(--primary-text)" data-bg-id="ITEM_1_BG" style="font-size: 26px; font-family: Inter, Segoe UI, Kalam, Roboto, Helvetica, Arial, sans-serif; font-weight: 400;" data-final-font-size="26">
        <tspan x="-220.0" dy="32.10px">Witness cannot see shadow</tspan>
        <tspan x="-220.0" dy="29.90px">boundary line</tspan>
      </text>
      <rect id="ITEM_1_BODY_FRAME" x="-220" y="-2" width="360" height="102" fill="none"/>
      <circle id="ITEM_1_PAD" cx="198" cy="-16" r="48" fill="var(--icon-pad-bg)" opacity="0.96" fill-opacity="0.9" stroke-width="2" stroke="var(--primary-text)"/>
      <circle id="ITEM_1_PAD_INNER" cx="198" cy="-16" r="37.44" fill="var(--accent-4)" fill-opacity="0.22"/>
      <circle cx="198" cy="-16" r="38" fill="none" stroke="var(--accent-1)" stroke-width="2.5" stroke-dasharray="6 4"/>
      <g id="ITEM_1_ICON" transform="translate(160, -54)" data-icon-size="76" stroke-dasharray="6 4">
        <g transform="translate(-3.2203389830508473,-3.2203389830508473) scale(3.4350282485875705)" vector-effect="non-scaling-stroke" stroke-width="2.62" stroke-linecap="round" stroke-linejoin="round" stroke-opacity="1.0">
          <path d="m2 2 20 20" vector-effect="non-scaling-stroke" fill="none" stroke="#f1f5f9"/>
          <path d="M8.35 2.69A10 10 0 0 1 21.3 15.65" vector-effect="non-scaling-stroke" fill="none" stroke="#f1f5f9"/>
          <path d="M19.08 19.08A10 10 0 1 1 4.92 4.92" vector-effect="non-scaling-stroke" fill="none" stroke="#f1f5f9"/>
        </g>
      </g>
    </g>
    <g transform="translate(1430, 384)">
      <rect id="ITEM_2_BG" x="-280" y="-110" width="560" height="220" rx="30" fill="var(--panel)" fill-opacity="0.95" stroke="var(--accent-2)" stroke-width="3" filter="url(#svg39c18d90-shadow)"/>
      <rect x="-280" y="-110" width="560" height="220" rx="18" fill="url(#svg39c18d90-universal-surface-sheen)" opacity="0.84"/>
      <rect x="-242" y="-82" width="16" height="164" rx="8" fill="var(--accent-2)" fill-opacity="0.22"/>
      <circle cx="-198" cy="-16" r="78" fill="none" stroke="var(--accent-2)" stroke-width="2.5" stroke-opacity="0.14"/>
      <text id="ITEM_2_HEAD" x="220.0" y="-82.0" text-anchor="end" font-weight="700" font-size="29" fill="var(--primary-text)" data-bg-id="ITEM_2_BG" fill-opacity="1.0" style="font-size: 30px; font-family: Inter, Segoe UI, Kalam, Roboto, Helvetica, Arial, sans-serif; font-weight: 700; letter-spacing:-0.4px;" data-final-font-size="30">
        <tspan x="220.0" dy="29.91px">Brain Fill-In</tspan>
      </text>
      <rect id="ITEM_2_HEAD_FRAME" x="-130" y="-82" width="350" height="38" fill="none"/>
      <text id="ITEM_2_BODY" x="220.0" y="-2.0" text-anchor="end" font-size="20" fill="var(--primary-text)" data-bg-id="ITEM_2_BG" style="font-size: 26px; font-family: Inter, Segoe UI, Kalam, Roboto, Helvetica, Arial, sans-serif; font-weight: 400;" data-final-font-size="26">
        <tspan x="220.0" dy="32.10px">Mind interprets loss</tspan>
        <tspan x="220.0" dy="29.90px">as active movement</tspan>
      </text>
      <rect id="ITEM_2_BODY_FRAME" x="-140" y="-2" width="360" height="102" fill="none"/>
      <circle id="ITEM_2_PAD" cx="-198" cy="-16" r="48" fill="var(--icon-pad-bg)" opacity="0.96" fill-opacity="0.9" stroke-width="2" stroke="var(--primary-text)"/>
      <circle id="ITEM_2_PAD_INNER" cx="-198" cy="-16" r="37.44" fill="var(--accent-5)" fill-opacity="0.22"/>
      <circle cx="-198" cy="-16" r="38" fill="none" stroke="var(--accent-2)" stroke-width="2.5" stroke-dasharray="6 4"/>
      <g id="ITEM_2_ICON" transform="translate(-236, -54)" data-icon-size="76" stroke-dasharray="6 4">
        <g transform="translate(-3.9310344827586206,-3.2758620689655196) scale(0.3275862068965517)" vector-effect="non-scaling-stroke" stroke-width="2.62" stroke-linecap="round" stroke-linejoin="round" stroke-opacity="1.0">
          <path d="M212,76V72a44,44,0,0,0-74.86-31.31,3.93,3.93,0,0,0-1.14,2.8v88.72a4,4,0,0,0,6.2,3.33A47.67,47.67,0,0,1,167.68,128a8.18,8.18,0,0,1,8.31,7.58,8,8,0,0,1-8,8.42,32,32,0,0,0-32,32v33.88a4,4,0,0,0,1.49,3.12,47.92,47.92,0,0,0,74.21-17.16,4,4,0,0,0-4.49-5.56A68.06,68.06,0,0,1,192,192h-7.73a8.18,8.18,0,0,1-8.25-7.47,8,8,0,0,1,8-8.53h8a51.6,51.6,0,0,0,24-5.88v0A52,52,0,0,0,212,76Zm-12,36h-4a36,36,0,0,1-36-36V72a8,8,0,0,1,16,0v4a20,20,0,0,0,20,20h4a8,8,0,0,1,0,16ZM88,28A44.05,44.05,0,0,0,44,72v4a52,52,0,0,0-4,94.12h0A51.6,51.6,0,0,0,64,176h7.73A8.18,8.18,0,0,1,80,183.47,8,8,0,0,1,72,192H64a67.48,67.48,0,0,1-15.21-1.73,4,4,0,0,0-4.5,5.55A47.93,47.93,0,0,0,118.51,213a4,4,0,0,0,1.49-3.12V176a32,32,0,0,0-32-32,8,8,0,0,1-8-8.42A8.18,8.18,0,0,1,88.32,128a47.67,47.67,0,0,1,25.48,7.54,4,4,0,0,0,6.2-3.33V43.49a4,4,0,0,0-1.14-2.81A43.85,43.85,0,0,0,88,28Zm8,48a36,36,0,0,1-36,36H56a8,8,0,0,1,0-16h4A20,20,0,0,0,80,76V72a8,8,0,0,1,16,0Z" vector-effect="non-scaling-stroke" fill="none" stroke="#f1f5f9"/>
        </g>
      </g>
    </g>
    <g transform="translate(960, 600)">
      <rect id="ITEM_3_BG" x="-310" y="-108" width="620" height="216" rx="32" fill="var(--panel)" fill-opacity="0.96" stroke="var(--accent-3)" stroke-width="3" filter="url(#svg39c18d90-shadow)"/>
      <rect x="-248" y="-76" width="496" height="12" rx="6" fill="var(--accent-3)" fill-opacity="0.18"/>
      <circle cx="0" cy="-18" r="86" fill="none" stroke="var(--accent-3)" stroke-width="2.5" stroke-opacity="0.14"/>
      <text id="ITEM_3_HEAD" x="0.0" y="-78.0" text-anchor="middle" font-weight="700" font-size="30" fill="var(--accent-6)" data-bg-id="ITEM_3_BG" fill-opacity="1.0" style="font-size: 30px; font-family: Inter, Segoe UI, Kalam, Roboto, Helvetica, Arial, sans-serif; font-weight: 700; letter-spacing:-0.4px;" data-final-font-size="30">
        <tspan x="0.0" dy="29.91px">Flare Brightness</tspan>
      </text>
      <rect id="ITEM_3_HEAD_FRAME" x="-250" y="-78" width="500" height="38" fill="none"/>
      <text id="ITEM_3_BODY" x="0.0" y="2.0" text-anchor="middle" font-size="20" fill="var(--primary-text)" data-bg-id="ITEM_3_BG" style="font-size: 26px; font-family: Inter, Segoe UI, Kalam, Roboto, Helvetica, Arial, sans-serif; font-weight: 400;" data-final-font-size="26">
        <tspan x="0.0" dy="31.18px">Intense glint intensifies mystery</tspan>
        <tspan x="0.0" dy="29.90px">before fade</tspan>
      </text>
      <rect id="ITEM_3_BODY_FRAME" x="-250" y="2" width="500" height="98" fill="none"/>
      <circle id="ITEM_3_PAD" cx="0" cy="-18" r="50" fill="var(--icon-pad-bg)" opacity="0.96" fill-opacity="0.9" stroke-width="2" stroke="var(--primary-text)"/>
      <circle id="ITEM_3_PAD_INNER" cx="0" cy="-18" r="39.00" fill="var(--accent-6)" fill-opacity="0.22"/>
      <circle cx="0" cy="-18" r="40" fill="none" stroke="var(--accent-3)" stroke-width="2.5" stroke-dasharray="6 4"/>
      <g id="ITEM_3_ICON" transform="translate(-40, -58)" data-icon-size="80" stroke-dasharray="6 4">
        <g transform="translate(-3.5398230088495577,-3.1858407079645996) scale(2.831858407079646)">
          <path d="M14.14 2C14.14 1.58579 13.8042 1.25 13.39 1.25C12.9758 1.25 12.64 1.58579 12.64 2V6C12.64 6.41421 12.9758 6.75 13.39 6.75C13.8042 6.75 14.14 6.41421 14.14 6V2Z" fill="#F9C23C"/>
          <path d="M5.58032 4.12964C5.28742 3.83675 4.81255 3.83675 4.51966 4.12964C4.22676 4.42254 4.22676 4.89741 4.51966 5.1903L7.62966 8.3003C7.92255 8.5932 8.39742 8.5932 8.69032 8.3003C8.98321 8.00741 8.98321 7.53254 8.69032 7.23964L5.58032 4.12964Z" fill="#F9C23C"/>
          <path d="M1.25 13.14C1.25 12.7258 1.58579 12.39 2 12.39H5.89C6.30421 12.39 6.64 12.7258 6.64 13.14C6.64 13.5542 6.30421 13.89 5.89 13.89H2C1.58579 13.89 1.25 13.5542 1.25 13.14Z" fill="#F9C23C"/>
          <path d="M17.0866 7.05107C17.9184 7.88288 16.4179 10.7321 13.735 13.415C11.0521 16.0979 8.20289 17.5984 7.37108 16.7666C6.53927 15.9348 8.03986 13.0856 10.7227 10.4027C13.4056 7.71985 16.2548 6.21927 17.0866 7.05107Z" fill="#F9C23C"/>
          <path d="M20.6699 14.69L28.0899 22.11C29.6799 23.7 29.6699 26.3 28.0599 27.91C26.4499 29.52 23.8499 29.53 22.2599 27.94L14.7099 20.39C12.7199 20.61 10.6499 19.97 9.12988 18.44L12.8199 12.5L18.7599 8.81C20.3699 10.42 20.9999 12.62 20.6699 14.69Z" fill="#B4ACBC"/>
          <path d="M7.05986 17.72L7.91986 18.58C8.26986 18.93 8.84986 18.93 9.19986 18.58L18.8999 8.87999C19.2499 8.52999 19.2499 7.94999 18.8999 7.59999L18.0399 6.74999C17.6899 6.39999 17.1099 6.39999 16.7599 6.74999L7.05986 16.45C6.70986 16.8 6.70986 17.37 7.05986 17.72Z" fill="#321B41"/>
          <path d="M18.2302 19.09L19.4402 20.3C19.7502 20.61 20.2702 20.61 20.5802 20.3L20.6102 20.27C20.9202 19.96 20.9202 19.44 20.6102 19.13L19.4002 17.92C19.0902 17.61 18.5702 17.61 18.2602 17.92L18.2302 17.95C17.9102 18.26 17.9102 18.77 18.2302 19.09Z" fill="#F4F4F4"/>
        </g>
      </g>
    </g>
    <g transform="translate(490, 816)">
      <rect id="ITEM_4_BG" x="-280" y="-110" width="560" height="220" rx="30" fill="var(--panel)" fill-opacity="0.95" stroke="var(--accent-4)" stroke-width="3" filter="url(#svg39c18d90-shadow)"/>
      <rect x="-280" y="-110" width="560" height="220" rx="18" fill="url(#svg39c18d90-universal-surface-sheen)" opacity="0.84"/>
      <rect x="226" y="-82" width="16" height="164" rx="8" fill="var(--accent-4)" fill-opacity="0.22"/>
      <circle cx="198" cy="-16" r="78" fill="none" stroke="var(--accent-4)" stroke-width="2.5" stroke-opacity="0.14"/>
      <text id="ITEM_4_HEAD" x="-220.0" y="-82.0" text-anchor="start" font-weight="700" font-size="29" fill="var(--primary-text)" data-bg-id="ITEM_4_BG" fill-opacity="1.0" style="font-size: 30px; font-family: Inter, Segoe UI, Kalam, Roboto, Helvetica, Arial, sans-serif; font-weight: 700; letter-spacing:-0.4px;" data-final-font-size="30">
        <tspan x="-220.0" dy="29.91px">Distance Expectation</tspan>
      </text>
      <rect id="ITEM_4_HEAD_FRAME" x="-220" y="-82" width="350" height="38" fill="none"/>
      <text id="ITEM_4_BODY" x="-220.0" y="-2.0" text-anchor="start" font-size="20" fill="var(--primary-text)" data-bg-id="ITEM_4_BG" style="font-size: 26px; font-family: Inter, Segoe UI, Kalam, Roboto, Helvetica, Arial, sans-serif; font-weight: 400;" data-final-font-size="26">
        <tspan x="-220.0" dy="32.10px">Eye expects distant lights</tspan>
        <tspan x="-220.0" dy="29.90px">to fade slowly</tspan>
      </text>
      <rect id="ITEM_4_BODY_FRAME" x="-220" y="-2" width="360" height="102" fill="none"/>
      <circle id="ITEM_4_PAD" cx="198" cy="-16" r="48" fill="var(--icon-pad-bg)" opacity="0.96" fill-opacity="0.9" stroke-width="2" stroke="var(--primary-text)"/>
      <circle id="ITEM_4_PAD_INNER" cx="198" cy="-16" r="37.44" fill="var(--accent-1)" fill-opacity="0.22"/>
      <circle cx="198" cy="-16" r="38" fill="none" stroke="var(--accent-4)" stroke-width="2.5" stroke-dasharray="6 4"/>
      <g id="ITEM_4_ICON" transform="translate(160, -54)" data-icon-size="76" stroke-dasharray="6 4">
        <g transform="translate(-6.725663716814159,-4.707964601769912) scale(2.690265486725664)">
          <path d="M16.25 29.25C16.25 29.6642 15.9143 30 15.5 30C15.0858 30 14.75 29.6642 14.75 29.25V18.2847L6.35413 29.6945C6.10863 30.0281 5.63916 30.0996 5.30554 29.8541C4.97192 29.6086 4.90047 29.1391 5.14597 28.8055L13.8421 16.9877C13.3669 16.9119 13 16.4964 13 16C13 15.4505 13.4497 15 13.9983 15H14.75V11.75C14.75 11.3358 15.0858 11 15.5 11C15.9143 11 16.25 11.3358 16.25 11.75V15H17.0018C17.5504 15 18 15.4505 18 16C18 16.421 17.7361 16.7839 17.366 16.9306L26.1041 28.8055C26.3496 29.1391 26.2782 29.6086 25.9446 29.8541C25.6109 30.0996 25.1415 30.0281 24.896 29.6945L16.25 17.9449V29.25Z" fill="#7167A4"/>
          <path d="M3.22683 4.27809C2.6088 5.92946 3.30622 7.78583 4.80973 8.60757L5.74923 8.95918L7.99999 8.00013L8.99999 4.00013L8.19939 2.40199L7.26328 2.05165C5.5897 1.68436 3.84485 2.62671 3.22683 4.27809Z" fill="#AEDDFF"/>
          <path d="M22.8343 8.94678L27.5555 10.7137L29 13.0001L28 15.0001L25.7687 15.3837L21.0817 13.6296L20 10.5001L22.8343 8.94678Z" fill="#D3D3D3"/>
          <path d="M8.59557 3.94216L11.9373 3.80078L23.1846 8.01009L20.731 14.566L9.48157 10.3559L7.48633 7.72365L8.59557 3.94216Z" fill="#BEBEBE"/>
          <path d="M11.9459 3.80389L8.19965 2.40186L5.74609 8.95777L9.49233 10.3598L11.9459 3.80389Z" fill="#5235A6"/>
          <path d="M29.39 11.4001L27.5169 10.6991L25.7644 15.3819L27.6375 16.0829C28.1547 16.2765 28.731 16.0141 28.9246 15.4969L29.9761 12.6872C30.1697 12.1699 29.9073 11.5937 29.39 11.4001Z" fill="#5235A6"/>
        </g>
      </g>
    </g>
    <g transform="translate(1430, 816)">
      <rect id="ITEM_5_BG" x="-280" y="-110" width="560" height="220" rx="30" fill="var(--panel)" fill-opacity="0.95" stroke="var(--accent-5)" stroke-width="3" filter="url(#svg39c18d90-shadow)"/>
      <rect x="-280" y="-110" width="560" height="220" rx="18" fill="url(#svg39c18d90-universal-surface-sheen)" opacity="0.84"/>
      <rect x="-242" y="-82" width="16" height="164" rx="8" fill="var(--accent-5)" fill-opacity="0.22"/>
      <circle cx="-198" cy="-16" r="78" fill="none" stroke="var(--accent-5)" stroke-width="2.5" stroke-opacity="0.14"/>
      <text id="ITEM_5_HEAD" x="220.0" y="-82.0" text-anchor="end" font-weight="700" font-size="29" fill="var(--accent-2)" data-bg-id="ITEM_5_BG" fill-opacity="1.0" style="font-size: 30px; font-family: Inter, Segoe UI, Kalam, Roboto, Helvetica, Arial, sans-serif; font-weight: 700; letter-spacing:-0.4px;" data-final-font-size="30">
        <tspan x="220.0" dy="29.91px">Abrupt Vanish</tspan>
      </text>
      <rect id="ITEM_5_HEAD_FRAME" x="-130" y="-82" width="350" height="38" fill="none"/>
      <text id="ITEM_5_BODY" x="220.0" y="-2.0" text-anchor="end" font-size="20" fill="var(--primary-text)" data-bg-id="ITEM_5_BG" style="font-size: 26px; font-family: Inter, Segoe UI, Kalam, Roboto, Helvetica, Arial, sans-serif; font-weight: 400;" data-final-font-size="26">
        <tspan x="220.0" dy="32.10px">Object maintains brightness</tspan>
        <tspan x="220.0" dy="29.90px">until exact cut</tspan>
      </text>
      <rect id="ITEM_5_BODY_FRAME" x="-140" y="-2" width="360" height="102" fill="none"/>
      <circle id="ITEM_5_PAD" cx="-198" cy="-16" r="48" fill="var(--icon-pad-bg)" opacity="0.96" fill-opacity="0.9" stroke-width="2" stroke="var(--primary-text)"/>
      <circle id="ITEM_5_PAD_INNER" cx="-198" cy="-16" r="37.44" fill="var(--accent-2)" fill-opacity="0.22"/>
      <circle cx="-198" cy="-16" r="38" fill="none" stroke="var(--accent-5)" stroke-width="2.5" stroke-dasharray="6 4"/>
      <g id="ITEM_5_ICON" transform="translate(-236, -54)" data-icon-size="76" stroke-dasharray="6 4">
        <g transform="translate(-4.371681415929206,-5.380530973451328) scale(2.690265486725664)">
          <path d="M17.6512 22.27H13.7612C12.9712 22.27 12.3212 22.91 12.3312 23.7V27.59C12.3312 28.38 12.9712 29.02 13.7612 29.02H14.0093C14.3418 29.6109 14.9749 30.01 15.7012 30.01C16.4275 30.01 17.0605 29.6109 17.393 29.02H17.6512C18.4412 29.02 19.0812 28.38 19.0812 27.59V23.7C19.0812 22.91 18.4412 22.27 17.6512 22.27Z" fill="#9B9B9B"/>
          <path d="M18.1611 23.13C18.4011 23.13 18.5911 22.95 18.6111 22.72C18.6811 21.86 19.0511 19.77 21.0711 17.53C22.9611 16.04 24.2111 13.78 24.3611 11.22C24.3811 10.98 24.3911 10.82 24.3911 10.72V10.71V10.7C24.3911 10.65 24.3911 10.62 24.3911 10.62C24.3311 5.84 20.4611 2 15.6911 2C10.9211 2 7.05111 5.84 7.00111 10.6C7.00111 10.6 6.99111 10.84 7.03111 11.24C7.19111 13.78 8.43111 16.03 10.3211 17.52C12.3411 19.77 12.7411 21.86 12.8111 22.72C12.8311 22.95 13.0211 23.13 13.2611 23.13H18.1611Z" fill="#FCD53F"/>
          <path d="M15.7011 10.7C17.3211 10.7 18.6411 12.01 18.6611 13.63V13.71C18.6611 13.74 18.6611 13.78 18.6511 13.84C18.6011 14.68 18.1911 15.47 17.5311 15.99L17.4611 16.04L17.4011 16.1C16.3011 17.32 16.0711 20.42 16.0311 22.12H15.3811C15.3311 20.42 15.0911 17.32 13.9911 16.1L13.9311 16.04L13.8611 15.99C13.2011 15.47 12.7911 14.69 12.7411 13.82C12.7411 13.78 12.7311 13.75 12.7311 13.73V13.64C12.7611 12.02 14.0911 10.7 15.7011 10.7ZM15.7011 9.69995C13.5311 9.69995 11.7611 11.45 11.7411 13.62C11.7411 13.62 11.7411 13.73 11.7511 13.91C11.8211 15.07 12.3911 16.09 13.2511 16.77C14.4511 18.11 14.3911 23.13 14.3911 23.13H17.0311C17.0311 23.13 16.9511 18.11 18.1611 16.78C19.0211 16.1 19.5911 15.07 19.6611 13.9C19.6711 13.79 19.6711 13.72 19.6711 13.67C19.6711 13.65 19.6711 13.63 19.6711 13.63C19.6411 11.45 17.8811 9.69995 15.7011 9.69995Z" fill="#FFB02E"/>
          <path d="M19.1674 25.0525C19.4394 25.0049 19.6213 24.7458 19.5737 24.4738C19.526 24.2018 19.2669 24.0199 18.9949 24.0675L12.2549 25.2475C11.9829 25.2951 11.801 25.5542 11.8486 25.8262C11.8963 26.0983 12.1554 26.2801 12.4274 26.2325L19.1674 25.0525ZM19.1178 27.2025C19.3897 27.1546 19.5714 26.8954 19.5236 26.6234C19.4757 26.3514 19.2165 26.1698 18.9445 26.2176L12.2945 27.3876C12.0225 27.4355 11.8408 27.6947 11.8887 27.9667C11.9365 28.2386 12.1958 28.4203 12.4678 28.3725L19.1178 27.2025Z" fill="#D3D3D3"/>
          <path d="M13.7912 5.43997C12.6812 7.35997 13.2412 9.75997 15.0412 10.79C16.8412 11.82 19.1912 11.11 20.3012 9.18997C21.4112 7.26997 20.8512 4.86997 19.0512 3.83997C17.2512 2.80997 14.9012 3.51997 13.7912 5.43997Z" fill="#FFF478"/>
        </g>
      </g>
    </g>
  </g>
</svg>
