<?xml version='1.0' encoding='utf-8'?>
<svg xmlns="http://www.w3.org/2000/svg" width="1920" height="1080" viewBox="0 0 1920 1080" data-theme="dark">
  <style>
        @font-face {
            font-family: 'Inter';
            src: url('assets/fonts/Inter-Regular.ttf') format('truetype');
            font-weight: 400;
            font-style: normal;
            font-display: swap;
        }
        @font-face {
            font-family: 'Inter';
            src: url('assets/fonts/Inter-Bold.ttf') format('truetype');
            font-weight: 600;
            font-style: normal;
            font-display: swap;
        }
        @font-face {
            font-family: 'Inter';
            src: url('assets/fonts/Inter-Bold.ttf') format('truetype');
            font-weight: 800;
            font-style: normal;
            font-display: swap;
        }
        
:root {
    --background: #0f172a;
    --panel: #1e293b;
    --primary-text: #f1f5f9;
    --muted-text: #94a3b8;
    --inverse-text: #0f172a;
    --border: #334155;
    --shadow-color: #000000;
    --icon-pad-bg: #1e293b;
    --art-glow: #7dd3fc;
    --art-glow-opacity: 0.18;
    --art-sheen: #ffffff;
    --art-sheen-opacity: 0.18;
    --art-shadow: #000000;
    --art-shadow-opacity: 0.28;
    --art-muted-line: #64748b;
    --art-panel-tint: #1e293b;
    --font-family: 'Inter', 'Segoe UI', 'Kalam', Roboto, Helvetica, Arial, sans-serif;
    --radius-xl: 16px;
    --font-family-headline: 'Inter', 'Segoe UI', 'Kalam', Roboto, Helvetica, Arial, sans-serif;
    --font-family-body: 'Inter', 'Segoe UI', 'Kalam', Roboto, Helvetica, Arial, sans-serif;
    --font-heading: 'Inter', 'Segoe UI', 'Kalam', Roboto, Helvetica, Arial, sans-serif;
    --font-body: 'Inter', 'Segoe UI', 'Kalam', Roboto, Helvetica, Arial, sans-serif;
    --font-size-h1: 56px;
    --font-size-h2: 40px;
    --font-size-h3: 28px;
    --font-size-body: 24px;
    --font-size-caption: 18px;
    --secondary-text: var(--muted-text);
    --panel-border: var(--border);
    --font-weight-normal: 400;
    --font-weight-medium: 500;
    --font-weight-semibold: 600;
    --font-weight-bold: 700;
    --spacing-gutter-pct: 0.07;
    --spacing-top-pct: 0.15;
    --spacing-bottom-pct: 0.07;
    --spacing-title-y-pct: 0.055;
    --accent-1: #22d3ee;
    --accent-2: #f472b6;
    --accent-3: #facc15;
    --accent-4: #a3e635;
    --accent-5: #fb923c;
    --accent-6: #c084fc;
}
:root[data-theme="dark"] {
    --background: #0f172a;
    --panel: #1e293b;
    --primary-text: #f1f5f9;
    --muted-text: #94a3b8;
    --inverse-text: #0f172a;
    --border: #334155;
    --shadow-color: #000000;
    --icon-pad-bg: #1e293b;
    --art-glow: #7dd3fc;
    --art-glow-opacity: 0.18;
    --art-sheen: #ffffff;
    --art-sheen-opacity: 0.18;
    --art-shadow: #000000;
    --art-shadow-opacity: 0.28;
    --art-muted-line: #64748b;
    --art-panel-tint: #1e293b;
    --accent-1: #22d3ee;
    --accent-2: #f472b6;
    --accent-3: #facc15;
    --accent-4: #a3e635;
    --accent-5: #fb923c;
    --accent-6: #c084fc;
}
:root[data-theme="light"] {
    --background: #f8fafc;
    --panel: #ffffff;
    --primary-text: #0f172a;
    --muted-text: #64748b;
    --inverse-text: #ffffff;
    --border: #e2e8f0;
    --shadow-color: #000000;
    --icon-pad-bg: #1e293b;
    --art-glow: #0891b2;
    --art-glow-opacity: 0.10;
    --art-sheen: #ffffff;
    --art-sheen-opacity: 0.34;
    --art-shadow: #0f172a;
    --art-shadow-opacity: 0.14;
    --art-muted-line: #94a3b8;
    --art-panel-tint: #f1f5f9;
    --accent-1: #0891b2;
    --accent-2: #db2777;
    --accent-3: #ca8a04;
    --accent-4: #65a30d;
    --accent-5: #ea580c;
    --accent-6: #9333ea;
}</style>
  <rect x="0" y="0" width="1.92E+3" height="1.08E+3" fill="#252a34" stroke="none" id="programmatic_background"/>
  <line id="HEADER_DECOR" x1="960.0" x2="1080.0" y1="125.0" y2="125.0" stroke="var(--accent-1)" stroke-width="6" stroke-linecap="round"/>
  <defs>
    <pattern id="svg613b9871-napkin-hatch" patternUnits="userSpaceOnUse" width="12" height="12">
      <path d="M -3 12 L 12 -3 M 0 15 L 15 0" fill="none" stroke="var(--primary-text)" stroke-width="1" stroke-opacity="0.05"/>
    </pattern>
    <filter id="svg613b9871-shadow" x="-30%" y="-30%" width="160%" height="160%">
      <feDropShadow dx="0" dy="3" stdDeviation="6" flood-color="#000000" flood-opacity="0.10"/>
      <feDropShadow dx="0" dy="8" stdDeviation="12" flood-color="#000000" flood-opacity="0.16"/>
    </filter>
    <marker id="svg613b9871-arrowhead" markerWidth="12" markerHeight="12" refX="10" refY="6" orient="auto">
      <path d="M 0 0 L 12 6 L 0 12 Z" fill="var(--muted-text)"/>
    </marker>
    <radialGradient id="svg613b9871-universal-edge-vignette" cx="50%" cy="50%" r="72%">
      <stop offset="0%" stop-color="var(--background)" stop-opacity="0"/>
      <stop offset="72%" stop-color="var(--background)" stop-opacity="0.12"/>
      <stop offset="100%" stop-color="var(--primary-text)" stop-opacity="0.08"/>
    </radialGradient>
    <linearGradient id="svg613b9871-universal-surface-sheen" x1="0%" y1="0%" x2="100%" y2="100%">
      <stop offset="0%" stop-color="var(--art-sheen)" stop-opacity="var(--art-sheen-opacity)"/>
      <stop offset="46%" stop-color="var(--art-sheen)" stop-opacity="0.035"/>
      <stop offset="100%" stop-color="var(--art-panel-tint)" stop-opacity="0.14"/>
    </linearGradient>
    <radialGradient id="svg613b9871-universal-icon-aura" cx="50%" cy="42%" r="64%">
      <stop offset="0%" stop-color="var(--art-glow)" stop-opacity="var(--art-glow-opacity)"/>
      <stop offset="100%" stop-color="var(--background)" stop-opacity="0"/>
    </radialGradient>
    <filter id="svg613b9871-text-glow" x="-20%" y="-20%" width="140%" height="140%">
      <feDropShadow dx="0" dy="0" stdDeviation="2" flood-color="#000000" flood-opacity="0.4"/>
    </filter>
  </defs>
  <rect width="100%" height="100%" fill="var(--background)" id="CANVAS_BG"/>
  <rect width="100%" height="100%" fill="url(#svg613b9871-napkin-hatch)"/>
  <rect id="UNIVERSAL_EDGE_VIGNETTE" width="100%" height="100%" fill="url(#svg613b9871-universal-edge-vignette)" opacity="0.62"/>
  <text id="TITLE" x="960.0" y="59" text-anchor="middle" font-size="58" font-weight="800" fill="#f1f5f9" style="font-size: 60px; font-family: Inter, Segoe UI, Kalam, Roboto, Helvetica, Arial, sans-serif; font-weight: 700; letter-spacing:-1.2px;" data-final-font-size="60">
    <tspan x="960.0" dy="68.00px">AI Atmospheric Reconstruction</tspan>
  </text>
  <rect id="TITLE_FRAME" x="134" y="56" width="1652" height="98" fill="none"/>
  <rect x="120" y="165" width="1680" height="820" rx="40" fill="var(--panel)" fill-opacity="0.22" stroke="var(--muted-text)" stroke-width="2.4" opacity="0.92"/>
  <path d="M 272.0 282.0 Q 319.5 282.0 367.0 418.0 Q 414.5 418.0 462.0 554.0 Q 509.5 554.0 557.0 690.0 Q 604.5 690.0 652.0 826.0" fill="none" stroke="var(--muted-text)" stroke-width="10" stroke-linecap="round" stroke-linejoin="round" opacity="0.36" marker-end="url(#svg613b9871-arrowhead)"/>
  <g id="DIAGRAM_MAIN" transform="translate(-60 -20) scale(1.08)">
    <g filter="url(#svg613b9871-shadow)">
      <rect id="ITEM_1_BG" x="190.0" y="210.0" width="980" height="144" rx="24" fill="var(--panel)" fill-opacity="0.97" stroke="var(--accent-1)" stroke-width="2.5"/>
      <rect x="190.0" y="210.0" width="980" height="144" rx="16" fill="url(#svg613b9871-universal-surface-sheen)" opacity="0.86"/>
      <rect x="190.0" y="210.0" width="980" height="18" rx="9" fill="var(--accent-1)" fill-opacity="0.55"/>
      <circle id="ITEM_1_PAD" cx="272.0" cy="282.0" r="40" fill="var(--icon-pad-bg)" opacity="0.95" fill-opacity="0.9" stroke-width="2" stroke="var(--primary-text)"/>
      <circle id="ITEM_1_PAD_INNER" cx="272.0" cy="282.0" r="31.20" fill="var(--accent-2)" fill-opacity="0.22"/>
      <circle cx="272.0" cy="282.0" r="32" fill="none" stroke="var(--accent-1)" stroke-width="3" stroke-dasharray="6 4"/>
      <g id="ITEM_1_ICON" transform="translate(242.0, 252.0)" data-icon-size="60" stroke-dasharray="6 4">
        <g transform="translate(-6.947368421052634,-5.578947368421056) scale(2.1894736842105265)">
          <path d="M13.9351 19.0067L13.9333 19.0087L13.9305 19.012L13.9229 19.0209C13.917 19.0278 13.9095 19.0368 13.9005 19.0478C13.8825 19.0697 13.8585 19.0997 13.8293 19.1378C13.771 19.214 13.692 19.3225 13.5995 19.4635C13.4145 19.7454 13.175 20.1573 12.9379 20.6994C12.4627 21.7854 12 23.3874 12 25.5C12 26.5106 11.7718 27.1659 11.4748 27.5998C11.1789 28.0322 10.7713 28.3082 10.2992 28.4853C9.46918 28.7965 8.56253 28.7737 7.88702 28.7568C7.7472 28.7533 7.61728 28.75 7.5 28.75C7.08579 28.75 6.75 29.0858 6.75 29.5C6.75 29.9142 7.08579 30.25 7.5 30.25C7.56951 30.25 7.66035 30.2529 7.76891 30.2563C8.4143 30.2768 9.68601 30.3172 10.8258 29.8898C11.5204 29.6293 12.2065 29.1866 12.7127 28.4471C13.2178 27.7091 13.5 26.7394 13.5 25.5C13.5 23.6126 13.9123 22.2146 14.3121 21.3006C14.5125 20.8427 14.7105 20.5046 14.8536 20.2865C14.9252 20.1775 14.9829 20.0985 15.0203 20.0497C15.039 20.0253 15.0526 20.0084 15.0602 19.9991L15.067 19.9909L15.066 19.9921L15.0653 19.9929L15.067 19.9909C15.3369 19.6792 15.3046 19.2075 14.9939 18.9356C14.6822 18.6628 14.2078 18.695 13.9351 19.0067Z" fill="#3F5FFF"/>
          <path d="M15.5446 19.0905L13.8083 18.3464C13.3732 18.1599 12.8716 18.3852 12.7219 18.8343C12.5946 19.2163 12.7675 19.6338 13.1277 19.8139L14.8173 20.6587C15.2073 20.8537 15.6815 20.7277 15.9234 20.3649C16.2233 19.9151 16.0415 19.3035 15.5446 19.0905Z" fill="#3F5FFF"/>
          <path d="M27 11C27 15.9706 22.9706 20 18 20C13.0294 20 9 15.9706 9 11C9 6.02944 13.0294 2 18 2C22.9706 2 27 6.02944 27 11Z" fill="#F8312F"/>
          <path d="M15.208 21.648L12.1528 20.2901C11.7825 20.1256 11.5977 19.7067 11.7259 19.3222C11.8728 18.8815 12.3675 18.6633 12.792 18.852L15.8471 20.2098C16.2174 20.3744 16.4022 20.7933 16.2741 21.1777C16.1272 21.6184 15.6325 21.8366 15.208 21.648Z" fill="#CA0B4A"/>
          <path d="M24.1622 6.83776C25.0596 7.7352 25.2669 8.98294 24.6252 9.62465C23.9835 10.2664 22.7358 10.0591 21.8383 9.16161C20.9409 8.26417 20.7336 7.01644 21.3753 6.37473C22.017 5.73301 23.2647 5.94032 24.1622 6.83776Z" fill="#FF8687"/>
        </g>
      </g>
      <rect x="345.0" y="238.0" width="690.0" height="24" rx="12" fill="var(--accent-1)" fill-opacity="0.08"/>
      <text x="1136.0" y="252.0" text-anchor="end" font-size="17" font-weight="800" fill="var(--accent-1)" opacity="0.72">01</text>
      <text id="ITEM_1_HEAD" x="358.0" y="228.0" text-anchor="start" font-weight="800" font-size="30" fill="var(--accent-2)" data-bg-id="ITEM_1_BG" fill-opacity="1.0" stroke="none" style="font-size: 30px; font-family: Inter, Segoe UI, Kalam, Roboto, Helvetica, Arial, sans-serif; font-weight: 700; letter-spacing:-0.4px;" data-final-font-size="30">
        <tspan x="358.0" dy="28.31px">Weather Archive</tspan>
      </text>
      <rect id="ITEM_1_HEAD_FRAME" x="358.0" y="228.0" width="620.0" height="34" fill="none"/>
      <text id="ITEM_1_BODY" x="358.0" y="270.0" text-anchor="start" font-size="23" fill="var(--primary-text)" data-bg-id="ITEM_1_BG" style="font-size: 26px; font-family: Inter, Segoe UI, Kalam, Roboto, Helvetica, Arial, sans-serif; font-weight: 400;" data-final-font-size="26">
        <tspan x="358.0" dy="29.92px">Archived balloon data estimates past conditions</tspan>
      </text>
      <rect id="ITEM_1_BODY_FRAME" x="358.0" y="270.0" width="650.0" height="64.0" fill="none"/>
    </g>
    <g filter="url(#svg613b9871-shadow)">
      <rect id="ITEM_2_BG" x="285.0" y="346.0" width="980" height="144" rx="24" fill="var(--panel)" fill-opacity="0.97" stroke="var(--accent-2)" stroke-width="2.5"/>
      <rect x="285.0" y="346.0" width="980" height="144" rx="16" fill="url(#svg613b9871-universal-surface-sheen)" opacity="0.86"/>
      <rect x="285.0" y="346.0" width="980" height="18" rx="9" fill="var(--accent-2)" fill-opacity="0.55"/>
      <circle id="ITEM_2_PAD" cx="367.0" cy="418.0" r="40" fill="var(--icon-pad-bg)" opacity="0.95" fill-opacity="0.9" stroke-width="2" stroke="var(--primary-text)"/>
      <circle id="ITEM_2_PAD_INNER" cx="367.0" cy="418.0" r="31.20" fill="var(--accent-3)" fill-opacity="0.22"/>
      <circle cx="367.0" cy="418.0" r="32" fill="none" stroke="var(--accent-2)" stroke-width="3" stroke-dasharray="6 4"/>
      <g id="ITEM_2_ICON" transform="translate(337.0, 388.0)" data-icon-size="60" stroke-dasharray="6 4">
        <g transform="translate(-5.65714285714286,-5.65714285714286) scale(2.2285714285714286)">
          <path d="M21.74 16.08L8.83 3.17C7.27 1.61 4.74 1.61 3.17 3.17C1.61 4.73 1.61 7.26 3.17 8.83L16.08 21.74C15.69 23.92 16.34 26.24 18.02 27.92C20.75 30.65 25.19 30.65 27.92 27.92C30.65 25.19 30.65 20.75 27.92 18.02C26.24 16.34 23.92 15.7 21.74 16.08Z" fill="#F4F4F4"/>
          <path d="M4.59 7.42002C3.81 6.64002 3.81 5.37 4.59 4.59C5.37 3.81 6.63 3.81 7.42 4.59L21.1439 18.3139C21.7096 18.0919 22.3255 17.97 22.97 17.97C25.7314 17.97 27.97 20.2085 27.97 22.97C27.97 25.7314 25.7314 27.97 22.97 27.97C20.2085 27.97 17.97 25.7314 17.97 22.97C17.97 22.3255 18.0919 21.7096 18.3139 21.1439L4.59 7.42002Z" fill="#F8312F"/>
          <path d="M10.23 4.59998L8.11 6.71997C7.72 7.10997 7.72 7.74997 8.11 8.12997C8.5 8.51997 9.13 8.51997 9.52 8.12997L11.64 6.00998L10.23 4.59998ZM12.35 10.97L14.47 8.84998L15.88 10.26L13.76 12.38C13.37 12.77 12.74 12.77 12.35 12.38C11.96 11.99 11.96 11.36 12.35 10.97ZM16.59 15.21L18.71 13.09L20.12 14.5L18 16.62C17.61 17.01 16.98 17.01 16.59 16.62C16.2 16.23 16.2 15.6 16.59 15.21Z" fill="black"/>
          <path d="M24.97 23.97C26.0745 23.97 26.97 23.0745 26.97 21.97C26.97 20.8654 26.0745 19.97 24.97 19.97C23.8654 19.97 22.97 20.8654 22.97 21.97C22.97 23.0745 23.8654 23.97 24.97 23.97Z" fill="#FF8687"/>
        </g>
      </g>
      <rect x="440.0" y="374.0" width="690.0" height="24" rx="12" fill="var(--accent-2)" fill-opacity="0.08"/>
      <text x="1231.0" y="388.0" text-anchor="end" font-size="17" font-weight="800" fill="var(--accent-2)" opacity="0.72">02</text>
      <text id="ITEM_2_HEAD" x="453.0" y="364.0" text-anchor="start" font-weight="800" font-size="30" fill="var(--accent-3)" data-bg-id="ITEM_2_BG" fill-opacity="1.0" stroke="none" style="font-size: 30px; font-family: Inter, Segoe UI, Kalam, Roboto, Helvetica, Arial, sans-serif; font-weight: 700; letter-spacing:-0.4px;" data-final-font-size="30">
        <tspan x="453.0" dy="28.31px">Gradient Check</tspan>
      </text>
      <rect id="ITEM_2_HEAD_FRAME" x="453.0" y="364.0" width="620.0" height="34" fill="none"/>
      <text id="ITEM_2_BODY" x="453.0" y="406.0" text-anchor="start" font-size="23" fill="var(--primary-text)" data-bg-id="ITEM_2_BG" style="font-size: 26px; font-family: Inter, Segoe UI, Kalam, Roboto, Helvetica, Arial, sans-serif; font-weight: 400;" data-final-font-size="26">
        <tspan x="453.0" dy="29.92px">AI correlates temperature and pressure layers</tspan>
      </text>
      <rect id="ITEM_2_BODY_FRAME" x="453.0" y="406.0" width="650.0" height="64.0" fill="none"/>
    </g>
    <g filter="url(#svg613b9871-shadow)">
      <rect id="ITEM_3_BG" x="380.0" y="482.0" width="980" height="144" rx="24" fill="var(--panel)" fill-opacity="0.97" stroke="var(--accent-3)" stroke-width="2.5"/>
      <rect x="380.0" y="482.0" width="980" height="144" rx="16" fill="url(#svg613b9871-universal-surface-sheen)" opacity="0.86"/>
      <rect x="380.0" y="482.0" width="980" height="18" rx="9" fill="var(--accent-3)" fill-opacity="0.55"/>
      <circle id="ITEM_3_PAD" cx="462.0" cy="554.0" r="40" fill="var(--icon-pad-bg)" opacity="0.95" fill-opacity="0.9" stroke-width="2" stroke="var(--primary-text)"/>
      <circle id="ITEM_3_PAD_INNER" cx="462.0" cy="554.0" r="31.20" fill="var(--accent-4)" fill-opacity="0.22"/>
      <circle cx="462.0" cy="554.0" r="32" fill="none" stroke="var(--accent-3)" stroke-width="3" stroke-dasharray="6 4"/>
      <g id="ITEM_3_ICON" transform="translate(432.0, 524.0)" data-icon-size="60" stroke-dasharray="6 4">
        <g transform="translate(-8.400000000000002,-8.400000000000002) scale(3.2)" vector-effect="non-scaling-stroke" stroke-width="2.43" stroke-linecap="round" stroke-linejoin="round" stroke-opacity="1.0">
          <path d="M3 21L3 3L9 3V15L21 15V21H3Z" stroke="#f1f5f9" vector-effect="non-scaling-stroke" fill="none"/>
          <path d="M13 19V21" stroke="#f1f5f9" vector-effect="non-scaling-stroke" fill="none"/>
          <path d="M9 19V21" stroke="#f1f5f9" vector-effect="non-scaling-stroke" fill="none"/>
          <path d="M3 7H5" stroke="#f1f5f9" vector-effect="non-scaling-stroke" fill="none"/>
          <path d="M3 11H5" stroke="#f1f5f9" vector-effect="non-scaling-stroke" fill="none"/>
          <path d="M3 15H5" stroke="#f1f5f9" vector-effect="non-scaling-stroke" fill="none"/>
          <path d="M17 19V21" stroke="#f1f5f9" vector-effect="non-scaling-stroke" fill="none"/>
        </g>
      </g>
      <rect x="535.0" y="510.0" width="690.0" height="24" rx="12" fill="var(--accent-3)" fill-opacity="0.08"/>
      <text x="1326.0" y="524.0" text-anchor="end" font-size="17" font-weight="800" fill="var(--accent-3)" opacity="0.72">03</text>
      <text id="ITEM_3_HEAD" x="548.0" y="500.0" text-anchor="start" font-weight="800" font-size="30" fill="var(--accent-4)" data-bg-id="ITEM_3_BG" fill-opacity="1.0" stroke="none" style="font-size: 30px; font-family: Inter, Segoe UI, Kalam, Roboto, Helvetica, Arial, sans-serif; font-weight: 700; letter-spacing:-0.4px;" data-final-font-size="30">
        <tspan x="548.0" dy="28.31px">Beam Angle</tspan>
      </text>
      <rect id="ITEM_3_HEAD_FRAME" x="548.0" y="500.0" width="620.0" height="34" fill="none"/>
      <text id="ITEM_3_BODY" x="548.0" y="542.0" text-anchor="start" font-size="23" fill="var(--primary-text)" data-bg-id="ITEM_3_BG" style="font-size: 26px; font-family: Inter, Segoe UI, Kalam, Roboto, Helvetica, Arial, sans-serif; font-weight: 400;" data-final-font-size="26">
        <tspan x="548.0" dy="29.92px">System checks if beam was vulnerable to ducting</tspan>
      </text>
      <rect id="ITEM_3_BODY_FRAME" x="548.0" y="542.0" width="650.0" height="64.0" fill="none"/>
    </g>
    <g filter="url(#svg613b9871-shadow)">
      <rect id="ITEM_4_BG" x="475.0" y="618.0" width="980" height="144" rx="24" fill="var(--panel)" fill-opacity="0.97" stroke="var(--accent-4)" stroke-width="2.5"/>
      <rect x="475.0" y="618.0" width="980" height="144" rx="16" fill="url(#svg613b9871-universal-surface-sheen)" opacity="0.86"/>
      <rect x="475.0" y="618.0" width="980" height="18" rx="9" fill="var(--accent-4)" fill-opacity="0.55"/>
      <circle id="ITEM_4_PAD" cx="557.0" cy="690.0" r="40" fill="var(--icon-pad-bg)" opacity="0.95" fill-opacity="0.9" stroke-width="2" stroke="var(--primary-text)"/>
      <circle id="ITEM_4_PAD_INNER" cx="557.0" cy="690.0" r="31.20" fill="var(--accent-5)" fill-opacity="0.22"/>
      <circle cx="557.0" cy="690.0" r="32" fill="none" stroke="var(--accent-4)" stroke-width="3" stroke-dasharray="6 4"/>
      <g id="ITEM_4_ICON" transform="translate(527.0, 660.0)" data-icon-size="60" stroke-dasharray="6 4">
        <g transform="translate(-6.4928571428571455,-5.65714285714286) scale(2.2285714285714286)">
          <path d="M25.87 17.9C25.17 16.82 25.17 15.49 25.87 14.42C26.36 13.67 26.65 12.77 26.65 11.8C26.65 9.70005 25.02 7.87005 22.92 7.26005C21.97 6.98005 21.27 6.23005 20.94 5.30005C20.3 3.50005 18.47 1.99005 16.35 2.00005C14.32 2.01005 12.64 3.51005 11.92 5.26005C11.56 6.13005 10.82 6.84005 9.9 7.02005C7.63 7.48005 6 9.58005 6 11.74C6 12.71 6.29 13.6 6.78 14.36C7.48 15.44 7.48 16.77 6.78 17.84C6.29 18.59 6 19.49 6 20.46C6 22.62 7.5 24.7201 9.67 25.1901C10.55 25.3801 11.3 26.04 11.62 26.88C12.31 28.7 14.06 30 16.13 30C18.19 30 19.95 28.7 20.64 26.88C20.97 26.01 21.73 25.35 22.64 25.15C24.96 24.65 26.65 22.67 26.65 20.51C26.64 19.55 26.36 18.65 25.87 17.9Z" fill="#F9C23C"/>
          <path d="M21.8603 10.05C20.6379 7.24441 18.6122 5.41003 16.3201 5.41003C12.5866 5.41003 9.56006 10.2767 9.56006 16.28C9.56006 18.1786 9.86278 19.9636 10.3948 21.5168L18.4667 18.6608L21.8603 10.05Z" fill="#26EAFC"/>
          <path d="M16.32 27.15C20.05 27.15 23.08 22.28 23.08 16.28C23.08 13.96 22.63 11.81 21.86 10.05L10.4 21.51C11.55 24.87 13.77 27.15 16.32 27.15Z" fill="#B4F6FC"/>
        </g>
      </g>
      <rect x="630.0" y="646.0" width="690.0" height="24" rx="12" fill="var(--accent-4)" fill-opacity="0.08"/>
      <text x="1421.0" y="660.0" text-anchor="end" font-size="17" font-weight="800" fill="var(--accent-4)" opacity="0.72">04</text>
      <text id="ITEM_4_HEAD" x="643.0" y="636.0" text-anchor="start" font-weight="800" font-size="30" fill="var(--accent-5)" data-bg-id="ITEM_4_BG" fill-opacity="1.0" stroke="none" style="font-size: 30px; font-family: Inter, Segoe UI, Kalam, Roboto, Helvetica, Arial, sans-serif; font-weight: 700; letter-spacing:-0.4px;" data-final-font-size="30">
        <tspan x="643.0" dy="28.31px">Surface Reflect</tspan>
      </text>
      <rect id="ITEM_4_HEAD_FRAME" x="643.0" y="636.0" width="620.0" height="34" fill="none"/>
      <text id="ITEM_4_BODY" x="643.0" y="678.0" text-anchor="start" font-size="23" fill="var(--primary-text)" data-bg-id="ITEM_4_BG" style="font-size: 26px; font-family: Inter, Segoe UI, Kalam, Roboto, Helvetica, Arial, sans-serif; font-weight: 400;" data-final-font-size="26">
        <tspan x="643.0" dy="29.92px">Model predicts likelihood of sea reflections</tspan>
      </text>
      <rect id="ITEM_4_BODY_FRAME" x="643.0" y="678.0" width="650.0" height="64.0" fill="none"/>
    </g>
    <g filter="url(#svg613b9871-shadow)">
      <rect id="ITEM_5_BG" x="570.0" y="754.0" width="980" height="144" rx="24" fill="var(--panel)" fill-opacity="0.97" stroke="var(--accent-5)" stroke-width="2.5"/>
      <rect x="570.0" y="754.0" width="980" height="144" rx="16" fill="url(#svg613b9871-universal-surface-sheen)" opacity="0.86"/>
      <rect x="570.0" y="754.0" width="980" height="18" rx="9" fill="var(--accent-5)" fill-opacity="0.55"/>
      <circle id="ITEM_5_PAD" cx="652.0" cy="826.0" r="40" fill="var(--icon-pad-bg)" opacity="0.95" fill-opacity="0.9" stroke-width="2" stroke="var(--primary-text)"/>
      <circle id="ITEM_5_PAD_INNER" cx="652.0" cy="826.0" r="31.20" fill="var(--accent-6)" fill-opacity="0.22"/>
      <circle cx="652.0" cy="826.0" r="32" fill="none" stroke="var(--accent-5)" stroke-width="3" stroke-dasharray="6 4"/>
      <g id="ITEM_5_ICON" transform="translate(622.0, 796.0)" data-icon-size="60" stroke-dasharray="6 4">
        <g transform="translate(-5.657142857142858,-5.65714285714286) scale(2.2285714285714286)">
          <path d="M5 4.5C5 3.67157 5.67157 3 6.5 3H25.5C26.3284 3 27 3.67157 27 4.5V28.5C27 29.3284 26.3284 30 25.5 30H6.5C5.67157 30 5 29.3284 5 28.5V4.5Z" fill="#E19747"/>
          <path d="M25 6C25 5.44772 24.5523 5 24 5H8C7.44772 5 7 5.44772 7 6V27C7 27.5523 7.44772 28 8 28H18.5858C18.7327 28 18.8764 27.9677 19.0071 27.9069L19.3282 27.1239L19.96 23.0379L24.4166 22.255L24.9064 22.0082C24.9675 21.8772 25 21.7332 25 21.5858V6Z" fill="#F3EEF8"/>
          <path d="M24.9102 22H20C19.4477 22 19 22.4477 19 23V27.9102C19.108 27.861 19.2074 27.7926 19.2929 27.7071L24.7071 22.2929C24.7926 22.2074 24.861 22.108 24.9102 22Z" fill="#CDC4D6"/>
          <path d="M18 4C18 2.89543 17.1046 2 16 2C14.8954 2 14 2.89543 14 4H13C11.8954 4 11 4.89543 11 6V7.5C11 7.77614 11.2239 8 11.5 8H20.5C20.7761 8 21 7.77614 21 7.5V6C21 4.89543 20.1046 4 19 4H18ZM17 4C17 4.55228 16.5523 5 16 5C15.4477 5 15 4.55228 15 4C15 3.44772 15.4477 3 16 3C16.5523 3 17 3.44772 17 4Z" fill="#9B9B9B"/>
          <path d="M9 12.5C9 12.2239 9.22386 12 9.5 12H22.5C22.7761 12 23 12.2239 23 12.5C23 12.7761 22.7761 13 22.5 13H9.5C9.22386 13 9 12.7761 9 12.5Z" fill="#9B9B9B"/>
          <path d="M9 15.5C9 15.2239 9.22386 15 9.5 15H22.5C22.7761 15 23 15.2239 23 15.5C23 15.7761 22.7761 16 22.5 16H9.5C9.22386 16 9 15.7761 9 15.5Z" fill="#9B9B9B"/>
          <path d="M9.5 18C9.22386 18 9 18.2239 9 18.5C9 18.7761 9.22386 19 9.5 19H22.5C22.7761 19 23 18.7761 23 18.5C23 18.2239 22.7761 18 22.5 18H9.5Z" fill="#9B9B9B"/>
          <path d="M9 21.5C9 21.2239 9.22386 21 9.5 21H17.5C17.7761 21 18 21.2239 18 21.5C18 21.7761 17.7761 22 17.5 22H9.5C9.22386 22 9 21.7761 9 21.5Z" fill="#9B9B9B"/>
        </g>
      </g>
      <rect x="725.0" y="782.0" width="690.0" height="24" rx="12" fill="var(--accent-5)" fill-opacity="0.08"/>
      <text x="1516.0" y="796.0" text-anchor="end" font-size="17" font-weight="800" fill="var(--accent-5)" opacity="0.72">05</text>
      <text id="ITEM_5_HEAD" x="738.0" y="772.0" text-anchor="start" font-weight="800" font-size="30" fill="var(--accent-6)" data-bg-id="ITEM_5_BG" fill-opacity="1.0" stroke="none" style="font-size: 30px; font-family: Inter, Segoe UI, Kalam, Roboto, Helvetica, Arial, sans-serif; font-weight: 700; letter-spacing:-0.4px;" data-final-font-size="30">
        <tspan x="738.0" dy="28.31px">Confidence Score</tspan>
      </text>
      <rect id="ITEM_5_HEAD_FRAME" x="738.0" y="772.0" width="620.0" height="34" fill="none"/>
      <text id="ITEM_5_BODY" x="738.0" y="814.0" text-anchor="start" font-size="23" fill="var(--primary-text)" data-bg-id="ITEM_5_BG" style="font-size: 26px; font-family: Inter, Segoe UI, Kalam, Roboto, Helvetica, Arial, sans-serif; font-weight: 400;" data-final-font-size="26">
        <tspan x="738.0" dy="29.92px">Analysis moves beyond binary solved or unsolved</tspan>
      </text>
      <rect id="ITEM_5_BODY_FRAME" x="738.0" y="814.0" width="650.0" height="64.0" fill="none"/>
    </g>
  </g>
</svg>
