<?xml version='1.0' encoding='utf-8'?>
<svg xmlns="http://www.w3.org/2000/svg" width="100%" height="100%" viewBox="0 0 1920 1080" data-theme="light">
  <style>
        @font-face {
            font-family: 'Inter';
            src: url('assets/fonts/Inter-Regular.ttf') format('truetype');
            font-weight: 400;
            font-style: normal;
            font-display: swap;
        }
        @font-face {
            font-family: 'Inter';
            src: url('assets/fonts/Inter-Bold.ttf') format('truetype');
            font-weight: 600;
            font-style: normal;
            font-display: swap;
        }
        @font-face {
            font-family: 'Inter';
            src: url('assets/fonts/Inter-Bold.ttf') format('truetype');
            font-weight: 800;
            font-style: normal;
            font-display: swap;
        }
        
:root {
    --background: #f8fafc;
    --panel: #ffffff;
    --primary-text: #0f172a;
    --muted-text: #64748b;
    --inverse-text: #ffffff;
    --border: #e2e8f0;
    --shadow-color: #000000;
    --icon-pad-bg: #1e293b;
    --art-glow: #0891b2;
    --art-glow-opacity: 0.10;
    --art-sheen: #ffffff;
    --art-sheen-opacity: 0.34;
    --art-shadow: #0f172a;
    --art-shadow-opacity: 0.14;
    --art-muted-line: #94a3b8;
    --art-panel-tint: #f1f5f9;
    --font-family: 'Inter', 'Segoe UI', 'Kalam', Roboto, Helvetica, Arial, sans-serif;
    --radius-xl: 16px;
    --font-family-headline: 'Inter', 'Segoe UI', 'Kalam', Roboto, Helvetica, Arial, sans-serif;
    --font-family-body: 'Inter', 'Segoe UI', 'Kalam', Roboto, Helvetica, Arial, sans-serif;
    --font-heading: 'Inter', 'Segoe UI', 'Kalam', Roboto, Helvetica, Arial, sans-serif;
    --font-body: 'Inter', 'Segoe UI', 'Kalam', Roboto, Helvetica, Arial, sans-serif;
    --font-size-h1: 56px;
    --font-size-h2: 40px;
    --font-size-h3: 28px;
    --font-size-body: 24px;
    --font-size-caption: 18px;
    --secondary-text: var(--muted-text);
    --panel-border: var(--border);
    --font-weight-normal: 400;
    --font-weight-medium: 500;
    --font-weight-semibold: 600;
    --font-weight-bold: 700;
    --spacing-gutter-pct: 0.07;
    --spacing-top-pct: 0.15;
    --spacing-bottom-pct: 0.07;
    --spacing-title-y-pct: 0.055;
    --accent-1: #0891b2;
    --accent-2: #db2777;
    --accent-3: #ca8a04;
    --accent-4: #65a30d;
    --accent-5: #ea580c;
    --accent-6: #9333ea;
}
:root[data-theme="dark"] {
    --background: #0f172a;
    --panel: #1e293b;
    --primary-text: #f1f5f9;
    --muted-text: #94a3b8;
    --inverse-text: #0f172a;
    --border: #334155;
    --shadow-color: #000000;
    --icon-pad-bg: #1e293b;
    --art-glow: #7dd3fc;
    --art-glow-opacity: 0.18;
    --art-sheen: #ffffff;
    --art-sheen-opacity: 0.18;
    --art-shadow: #000000;
    --art-shadow-opacity: 0.28;
    --art-muted-line: #64748b;
    --art-panel-tint: #1e293b;
    --accent-1: #22d3ee;
    --accent-2: #f472b6;
    --accent-3: #facc15;
    --accent-4: #a3e635;
    --accent-5: #fb923c;
    --accent-6: #c084fc;
}
:root[data-theme="light"] {
    --background: #f8fafc;
    --panel: #ffffff;
    --primary-text: #0f172a;
    --muted-text: #64748b;
    --inverse-text: #ffffff;
    --border: #e2e8f0;
    --shadow-color: #000000;
    --icon-pad-bg: #1e293b;
    --art-glow: #0891b2;
    --art-glow-opacity: 0.10;
    --art-sheen: #ffffff;
    --art-sheen-opacity: 0.34;
    --art-shadow: #0f172a;
    --art-shadow-opacity: 0.14;
    --art-muted-line: #94a3b8;
    --art-panel-tint: #f1f5f9;
    --accent-1: #0891b2;
    --accent-2: #db2777;
    --accent-3: #ca8a04;
    --accent-4: #65a30d;
    --accent-5: #ea580c;
    --accent-6: #9333ea;
}</style>
  <rect x="0" y="0" width="1.92E+3" height="1.08E+3" fill="#252a34" stroke="none" id="programmatic_background"/>
  <line id="HEADER_DECOR" x1="960.0" x2="1080.0" y1="90.0" y2="90.0" stroke="var(--accent-1)" stroke-width="6" stroke-linecap="round"/>
  <defs>
    <filter id="svg6c0f01ed-glow" x="-20%" y="-20%" width="140%" height="140%">
      <feGaussianBlur stdDeviation="8" result="blur"/>
      <feComposite in="SourceGraphic" in2="blur" operator="over"/>
    </filter>
    <filter id="svg6c0f01ed-drop-shadow" x="-5%" y="-5%" width="110%" height="110%">
      <feDropShadow dx="0" dy="6" stdDeviation="6" flood-color="#000000" flood-opacity="0.3"/>
    </filter>
    <linearGradient id="svg6c0f01ed-bg-grad" x1="0%" y1="0%" x2="100%" y2="100%">
      <stop offset="0%" stop-color="var(--background)"/>
      <stop offset="100%" stop-color="var(--panel)"/>
    </linearGradient>
    <radialGradient id="svg6c0f01ed-core-glow" cx="50%" cy="50%" r="50%">
      <stop offset="0%" stop-color="var(--accent-1)" stop-opacity="0.2"/>
      <stop offset="60%" stop-color="var(--accent-1)" stop-opacity="0.1"/>
      <stop offset="100%" stop-color="var(--accent-1)" stop-opacity="0"/>
    </radialGradient>
    <pattern id="svg6c0f01ed-dot-grid" x="0" y="0" width="40" height="40" patternUnits="userSpaceOnUse">
      <circle cx="2" cy="2" r="1.5" fill="var(--muted-text)" opacity="0.1"/>
    </pattern>
    <radialGradient id="svg6c0f01ed-universal-edge-vignette" cx="50%" cy="50%" r="72%">
      <stop offset="0%" stop-color="var(--background)" stop-opacity="0"/>
      <stop offset="72%" stop-color="var(--background)" stop-opacity="0.12"/>
      <stop offset="100%" stop-color="var(--primary-text)" stop-opacity="0.08"/>
    </radialGradient>
    <linearGradient id="svg6c0f01ed-universal-surface-sheen" x1="0%" y1="0%" x2="100%" y2="100%">
      <stop offset="0%" stop-color="var(--art-sheen)" stop-opacity="var(--art-sheen-opacity)"/>
      <stop offset="46%" stop-color="var(--art-sheen)" stop-opacity="0.035"/>
      <stop offset="100%" stop-color="var(--art-panel-tint)" stop-opacity="0.14"/>
    </linearGradient>
    <radialGradient id="svg6c0f01ed-universal-icon-aura" cx="50%" cy="42%" r="64%">
      <stop offset="0%" stop-color="var(--art-glow)" stop-opacity="var(--art-glow-opacity)"/>
      <stop offset="100%" stop-color="var(--background)" stop-opacity="0"/>
    </radialGradient>
    <radialGradient id="svg6c0f01ed-orbital-rings-art-glow" cx="50%" cy="52%" r="68%">
      <stop offset="0%" stop-color="var(--inverse-text)" stop-opacity="0.14"/>
      <stop offset="100%" stop-color="var(--background)" stop-opacity="0"/>
    </radialGradient>
    <linearGradient id="svg6c0f01ed-orbital-rings-art-sheen" x1="16%" y1="0%" x2="86%" y2="100%">
      <stop offset="0%" stop-color="var(--inverse-text)" stop-opacity="0.22"/>
      <stop offset="52%" stop-color="var(--inverse-text)" stop-opacity="0.035"/>
      <stop offset="100%" stop-color="var(--background)" stop-opacity="0.14"/>
    </linearGradient>
    <radialGradient id="svg6c0f01ed-orbital-depth-glow" cx="50%" cy="50%" r="58%">
      <stop offset="0%" stop-color="var(--art-glow)" stop-opacity="var(--art-glow-opacity)"/>
      <stop offset="58%" stop-color="var(--art-glow)" stop-opacity="0.055"/>
      <stop offset="100%" stop-color="var(--background)" stop-opacity="0"/>
    </radialGradient>
    <linearGradient id="svg6c0f01ed-orbital-ring-sweep" x1="0%" y1="0%" x2="100%" y2="100%">
      <stop offset="0%" stop-color="var(--background)" stop-opacity="0"/>
      <stop offset="46%" stop-color="var(--art-sheen)" stop-opacity="0.22"/>
      <stop offset="100%" stop-color="var(--background)" stop-opacity="0"/>
    </linearGradient>
    <filter id="svg6c0f01ed-text-glow" x="-20%" y="-20%" width="140%" height="140%">
      <feDropShadow dx="0" dy="0" stdDeviation="2" flood-color="#000000" flood-opacity="0.4"/>
    </filter>
    <filter id="svg6c0f01ed-shadow" x="-30%" y="-30%" width="160%" height="160%">
      <feDropShadow dx="0" dy="2" stdDeviation="3" flood-color="#000000" flood-opacity="0.08"/>
      <feDropShadow dx="0" dy="6" stdDeviation="10" flood-color="#000000" flood-opacity="0.12"/>
    </filter>
    <marker id="svg6c0f01ed-arrowhead" markerWidth="10" markerHeight="7" refX="9" refY="3.5" orient="auto" markerUnits="strokeWidth">
      <polygon points="0 0, 10 3.5, 0 7" fill="var(--muted-text)" opacity="0.6"/>
    </marker>
  </defs>
  <rect width="100%" height="100%" fill="var(--background)" id="CANVAS_BG"/>
  <ellipse id="ORBITAL-RINGS_ART_GLOW" cx="960" cy="600" rx="650" ry="340" fill="url(#svg6c0f01ed-orbital-rings-art-glow)" opacity="0.84"/>
  <rect id="UNIVERSAL_EDGE_VIGNETTE" width="100%" height="100%" fill="url(#svg6c0f01ed-universal-edge-vignette)" opacity="0.62"/>
  <rect width="1920" height="1080" fill="url(#svg6c0f01ed-bg-grad)"/>
  <rect width="1920" height="1080" fill="url(#svg6c0f01ed-dot-grid)"/>
  <rect id="TITLE_FRAME" x="134" y="25" width="1652" height="70" fill="none" pointer-events="none"/>
  <text id="TITLE" x="960.0" y="59" font-size="48" font-weight="700" fill="#0f172a" text-anchor="middle" style="font-size: 60px; font-family: Inter, Segoe UI, Kalam, Roboto, Helvetica, Arial, sans-serif; font-weight: 700; letter-spacing:-1.2px;" data-final-font-size="60">
    <tspan x="960.0" dy="68.00px">NOAA Satellites Detect Storms</tspan>
  </text>
  <g id="DIAGRAM_MAIN">
    <!-- Center Core Glow -->
    <circle cx="960.0" cy="540.0" r="280" fill="url(#svg6c0f01ed-core-glow)" pointer-events="none"/>
    <circle cx="960.0" cy="540.0" r="240.0" fill="none" stroke="var(--muted-text)" stroke-width="2" stroke-dasharray="8 8" opacity="0.4"/>
    <circle id="ORBITAL_RINGS_ART_RING_SHEEN_240.0" cx="960.0" cy="540.0" r="240.0" fill="none" stroke="url(#svg6c0f01ed-orbital-ring-sweep)" stroke-width="3" stroke-dasharray="28 30" opacity="0.46"/>
    <circle cx="960.0" cy="540.0" r="295.0" fill="none" stroke="var(--muted-text)" stroke-width="2" stroke-dasharray="8 8" opacity="0.4"/>
    <circle id="ORBITAL_RINGS_ART_RING_SHEEN_295.0" cx="960.0" cy="540.0" r="295.0" fill="none" stroke="url(#svg6c0f01ed-orbital-ring-sweep)" stroke-width="3" stroke-dasharray="28 30" opacity="0.46"/>
    <circle cx="960.0" cy="540.0" r="350.0" fill="none" stroke="var(--muted-text)" stroke-width="2" stroke-dasharray="8 8" opacity="0.4"/>
    <circle id="ORBITAL_RINGS_ART_RING_SHEEN_350.0" cx="960.0" cy="540.0" r="350.0" fill="none" stroke="url(#svg6c0f01ed-orbital-ring-sweep)" stroke-width="3" stroke-dasharray="28 30" opacity="0.46"/>
    <circle cx="960.0" cy="540.0" r="405.0" fill="none" stroke="var(--muted-text)" stroke-width="2" stroke-dasharray="8 8" opacity="0.4"/>
    <circle id="ORBITAL_RINGS_ART_RING_SHEEN_405.0" cx="960.0" cy="540.0" r="405.0" fill="none" stroke="url(#svg6c0f01ed-orbital-ring-sweep)" stroke-width="3" stroke-dasharray="28 30" opacity="0.46"/>
    <circle cx="960.0" cy="540.0" r="460.0" fill="none" stroke="var(--muted-text)" stroke-width="2" stroke-dasharray="8 8" opacity="0.4"/>
    <circle id="ORBITAL_RINGS_ART_RING_SHEEN_460.0" cx="960.0" cy="540.0" r="460.0" fill="none" stroke="url(#svg6c0f01ed-orbital-ring-sweep)" stroke-width="3" stroke-dasharray="28 30" opacity="0.46"/>
    <ellipse id="ORBITAL_RINGS_ART_DEPTH_GLOW" cx="960.0" cy="540.0" rx="410" ry="340" fill="url(#svg6c0f01ed-orbital-depth-glow)" opacity="0.92"/>
    <!-- Central Core Graphic -->
    <circle cx="960.0" cy="540.0" r="180" fill="var(--panel)" stroke="var(--primary-text)" stroke-width="4" filter="url(#svg6c0f01ed-drop-shadow)"/>
    <circle cx="960.0" cy="540.0" r="165" fill="none" stroke="var(--muted-text)" stroke-width="2" stroke-dasharray="10 5" opacity="0.3"/>
    <circle cx="960.0" cy="540.0" r="140" fill="none" stroke="var(--accent-1)" stroke-width="1" stroke-dasharray="4 4" opacity="0.5"/>
    <circle id="ORBITAL_RINGS_ART_CORE_AURA" cx="960.0" cy="540.0" r="74" fill="url(#svg6c0f01ed-universal-icon-aura)" opacity="0.72"/>
    <circle cx="960.0" cy="540.0" r="30" fill="var(--primary-text)" opacity="0.1"/>
    <circle id="ORBITAL_RINGS_ART_CORE_GLINT" cx="938" cy="518" r="11" fill="var(--art-sheen)" opacity="0.34"/>
    <!-- Standard Top Global Title -->
    <circle id="ORBITAL_RINGS_ART_NODE_AURA_1" cx="1200.0" cy="540.0" r="58" fill="var(--accent-5)" opacity="0.72" fill-opacity="1.0" stroke="var(--accent-5)" stroke-opacity="1.0"/>
    <circle id="ITEM_1_BORDER" cx="1200.0" cy="540.0" r="42" fill="var(--icon-pad-bg)" stroke="var(--accent-5)" filter="url(#svg6c0f01ed-drop-shadow)" stroke-opacity="1.0"/>
    <circle id="ITEM_1_STROKE" cx="1200.0" cy="540.0" r="34" fill="none" stroke="var(--accent-1)" stroke-width="3" stroke-dasharray="6 4" opacity="0.95"/>
    <!-- Node Icon Placeholder -->
    <circle id="ITEM_1_PAD" cx="1204.00" cy="544.00" r="44.80" fill="var(--icon-pad-bg)" stroke="var(--primary-text)" stroke-width="2" opacity="0.9"/>
    <circle id="ITEM_1_PAD_INNER" cx="1204.00" cy="544.00" r="34.94" fill="var(--accent-5)" fill-opacity="0.22"/>
    <g id="ITEM_1_ICON" transform="translate(1176.0, 516.0)" data-icon-size="56" stroke-dasharray="6 4">
      <g transform="translate(-12.871999999999993,-11.935999999999995) scale(2.4959999999999996)" vector-effect="non-scaling-stroke" fill="#f1f5f9" fill-opacity="1.0" stroke="none">
        <path fill="#f1f5f9" d="M11.61 29.92a1 1 0 0 1-.6-1.07L12.83 17H8a1 1 0 0 1-1-1.23l3-13A1 1 0 0 1 11 2h10a1 1 0 0 1 .78.37a1 1 0 0 1 .2.85L20.25 11H25a1 1 0 0 1 .9.56a1 1 0 0 1-.11 1l-13 17A1 1 0 0 1 12 30a1.1 1.1 0 0 1-.39-.08M17.75 13l2-9H11.8L9.26 15h5.91l-1.59 10.28L23 13Z" vector-effect="non-scaling-stroke" stroke="none"/>
      </g>
    </g>
    <line x1="1248.0" y1="540.0" x2="1260.0" y2="540.0" stroke="var(--accent-1)" stroke-width="2" stroke-dasharray="2 2" opacity="0.5"/>
    <circle cx="1260.0" cy="540.0" r="3" fill="var(--accent-1)"/>
    <!-- Node 1 Frames -->
    <rect id="ITEM_1_HEAD_FRAME" x="1270.0" y="500.0" width="260" height="40" fill="none" pointer-events="none"/>
    <rect id="ITEM_1_BODY_FRAME" x="1270" y="540.0" width="380" height="120" fill="none" pointer-events="none"/>
    <rect id="ITEM_1_TEXT_BG" x="1252" y="486" width="416" height="192" rx="22" fill="var(--panel)" fill-opacity="0.94" stroke="var(--primary-text)" stroke-width="2"/>
    <text id="ITEM_1_HEAD" x="1270.0" y="500.0" font-family="var(--font-heading)" font-weight="bold" font-size="28" fill="var(--primary-text)" text-anchor="start" data-bg-id="ITEM_1_TEXT_BG" fill-opacity="1.0" style="font-size: 30px; font-family: Inter, Segoe UI, Kalam, Roboto, Helvetica, Arial, sans-serif; font-weight: 700; letter-spacing:-0.4px;" data-final-font-size="30">
      <tspan x="1270.0" dy="28.25px">Sprite Flash</tspan>
    </text>
    <text id="ITEM_1_BODY" x="1270.0" y="540.0" font-family="var(--font-body)" font-size="20" fill="var(--primary-text)" opacity="0.8" text-anchor="start" data-bg-id="ITEM_1_TEXT_BG" style="font-size: 26px; font-family: Inter, Segoe UI, Kalam, Roboto, Helvetica, Arial, sans-serif; font-weight: 400;" data-final-font-size="26">
      <tspan x="1270.0" dy="32.84px">Brief red flashes appear high</tspan>
      <tspan x="1270.0" dy="29.90px">above thunderstorm systems</tspan>
    </text>
    <circle id="ORBITAL_RINGS_ART_NODE_AURA_2" cx="665.0" cy="540.0" r="58" fill="var(--accent-6)" opacity="0.72" fill-opacity="1.0" stroke="var(--accent-6)" stroke-opacity="1.0"/>
    <circle id="ITEM_2_BORDER" cx="665.0" cy="540.0" r="42" fill="var(--icon-pad-bg)" stroke="var(--accent-6)" filter="url(#svg6c0f01ed-drop-shadow)" stroke-opacity="1.0"/>
    <circle id="ITEM_2_STROKE" cx="665.0" cy="540.0" r="34" fill="none" stroke="var(--accent-2)" stroke-width="3" stroke-dasharray="6 4" opacity="0.95"/>
    <!-- Node Icon Placeholder -->
    <circle id="ITEM_2_PAD" cx="669.00" cy="544.00" r="44.80" fill="var(--icon-pad-bg)" stroke="var(--primary-text)" stroke-width="2" opacity="0.9"/>
    <circle id="ITEM_2_PAD_INNER" cx="669.00" cy="544.00" r="34.94" fill="var(--accent-6)" fill-opacity="0.22"/>
    <g id="ITEM_2_ICON" transform="translate(641.0, 516.0)" data-icon-size="56" stroke-dasharray="6 4">
      <g transform="translate(-18.59199999999999,-18.59199999999999) scale(2.9119999999999995)" vector-effect="non-scaling-stroke" fill="#f1f5f9" fill-opacity="1.0" stroke="none">
        <path fill="#f1f5f9" d="M24 4h2v24h-2zm-6 2v20h-4V6zm0-2h-4a2 2 0 0 0-2 2v20a2 2 0 0 0 2 2h4a2 2 0 0 0 2-2V6a2 2 0 0 0-2-2M6 4h2v24H6z" vector-effect="non-scaling-stroke" stroke="none"/>
      </g>
    </g>
    <line x1="617.0" y1="540.0" x2="605.0" y2="540.0" stroke="var(--accent-2)" stroke-width="2" stroke-dasharray="2 2" opacity="0.5"/>
    <circle cx="605.0" cy="540.0" r="3" fill="var(--accent-2)"/>
    <!-- Node 2 Frames -->
    <rect id="ITEM_2_HEAD_FRAME" x="335.0" y="500.0" width="260" height="40" fill="none" pointer-events="none"/>
    <rect id="ITEM_2_BODY_FRAME" x="215" y="540.0" width="380" height="120" fill="none" pointer-events="none"/>
    <rect id="ITEM_2_TEXT_BG" x="197" y="486" width="416" height="192" rx="22" fill="var(--panel)" fill-opacity="0.94" stroke="var(--primary-text)" stroke-width="2"/>
    <text id="ITEM_2_HEAD" x="595.0" y="500.0" font-family="var(--font-heading)" font-weight="bold" font-size="28" fill="var(--accent-6)" text-anchor="end" data-bg-id="ITEM_2_TEXT_BG" fill-opacity="1.0" style="font-size: 30px; font-family: Inter, Segoe UI, Kalam, Roboto, Helvetica, Arial, sans-serif; font-weight: 700; letter-spacing:-0.4px;" data-final-font-size="30">
      <tspan x="595.0" dy="28.25px">Blue Jet Column</tspan>
    </text>
    <text id="ITEM_2_BODY" x="595.0" y="540.0" font-family="var(--font-body)" font-size="20" fill="var(--primary-text)" opacity="0.8" text-anchor="end" data-bg-id="ITEM_2_TEXT_BG" style="font-size: 26px; font-family: Inter, Segoe UI, Kalam, Roboto, Helvetica, Arial, sans-serif; font-weight: 400;" data-final-font-size="26">
      <tspan x="595.0" dy="32.84px">Vertical luminous columns</tspan>
      <tspan x="595.0" dy="29.90px">shoot upward from storm tops</tspan>
    </text>
    <circle id="ORBITAL_RINGS_ART_NODE_AURA_3" cx="1184.975663390289" cy="271.8844449083577" r="58" fill="var(--accent-1)" opacity="0.72" fill-opacity="1.0" stroke="var(--accent-1)" stroke-opacity="1.0"/>
    <circle id="ITEM_3_BORDER" cx="1184.975663390289" cy="271.8844449083577" r="42" fill="var(--icon-pad-bg)" stroke="var(--accent-1)" filter="url(#svg6c0f01ed-drop-shadow)" stroke-opacity="1.0"/>
    <circle id="ITEM_3_STROKE" cx="1184.975663390289" cy="271.8844449083577" r="34" fill="none" stroke="var(--accent-3)" stroke-width="3" stroke-dasharray="6 4" opacity="0.95"/>
    <!-- Node Icon Placeholder -->
    <circle id="ITEM_3_PAD" cx="1188.98" cy="275.88" r="44.80" fill="var(--icon-pad-bg)" stroke="var(--primary-text)" stroke-width="2" opacity="0.9"/>
    <circle id="ITEM_3_PAD_INNER" cx="1188.98" cy="275.88" r="34.94" fill="var(--accent-1)" fill-opacity="0.22"/>
    <g id="ITEM_3_ICON" transform="translate(1160.975663390289, 247.8844449083577)" data-icon-size="56" stroke-dasharray="6 4">
      <g transform="translate(-10.999999999999993,-11.935999999999995) scale(2.4959999999999996)">
        <path d="M17.9119 2H13.2619C13.0519 2 12.8419 2.09001 12.7119 2.26001L10.8219 4.51999C10.6419 4.72999 10.6019 5.03 10.7219 5.28L12.7419 9.76001C12.8619 10.02 13.1119 10.19 13.4019 10.19H17.7919C18.0719 10.19 18.3319 10.02 18.4519 9.76001L20.4719 5.28C20.5819 5.03 20.5419 4.72999 20.3719 4.51999L18.4819 2.26001C18.3319 2.10001 18.1319 2 17.9119 2Z" fill="#00A6ED"/>
        <path d="M20.5019 4.82999C20.4819 4.71999 20.4319 4.60999 20.3519 4.51999L18.4619 2.26001C18.3219 2.10001 18.1219 2 17.9119 2H13.2619C13.0519 2 12.8419 2.09001 12.7119 2.26001L10.8219 4.51999C10.7419 4.60999 10.6919 4.71999 10.6719 4.82999H20.5019Z" fill="#26EAFC"/>
        <path d="M19.2119 8.53009V8.1001H11.9819V8.53009C11.9819 9.07009 11.6619 9.55008 11.1819 9.77008C7.3919 11.5101 4.8019 15.4201 5.0119 19.9001C5.2719 25.4601 9.8619 29.9101 15.4219 30.0001C21.3419 30.1001 26.1919 25.3001 26.1919 19.4001C26.1919 15.1301 23.6519 11.4401 20.0019 9.7601C19.5219 9.5401 19.2119 9.06009 19.2119 8.53009ZM15.5919 26.9301C11.4419 26.9301 8.0619 23.5501 8.0619 19.4001C8.0619 15.2501 11.4419 11.8701 15.5919 11.8701C19.7419 11.8701 23.1219 15.2501 23.1219 19.4001C23.1219 23.5501 19.7419 26.9301 15.5919 26.9301Z" fill="#B4ACBC"/>
      </g>
    </g>
    <line x1="1215.8294686552429" y1="235.11431163864674" x2="1244.975663390289" y2="271.8844449083577" stroke="var(--accent-3)" stroke-width="2" stroke-dasharray="2 2" opacity="0.5"/>
    <circle cx="1244.975663390289" cy="271.8844449083577" r="3" fill="var(--accent-3)"/>
    <!-- Node 3 Frames -->
    <rect id="ITEM_3_HEAD_FRAME" x="1254.975663390289" y="231.8844449083577" width="260" height="40" fill="none" pointer-events="none"/>
    <rect id="ITEM_3_BODY_FRAME" x="1255" y="271.8844449083577" width="380" height="120" fill="none" pointer-events="none"/>
    <rect id="ITEM_3_TEXT_BG" x="1236.975663390289" y="217.8844449083577" width="416.024336609711" height="192" rx="22" fill="var(--panel)" fill-opacity="0.94" stroke="var(--primary-text)" stroke-width="2"/>
    <text id="ITEM_3_HEAD" x="1254.975663390289" y="231.8844449083577" font-family="var(--font-heading)" font-weight="bold" font-size="28" fill="var(--primary-text)" text-anchor="start" data-bg-id="ITEM_3_TEXT_BG" fill-opacity="1.0" style="font-size: 30px; font-family: Inter, Segoe UI, Kalam, Roboto, Helvetica, Arial, sans-serif; font-weight: 700; letter-spacing:-0.4px;" data-final-font-size="30">
      <tspan x="1254.975663390289" dy="28.25px">Elve Ring</tspan>
    </text>
    <text id="ITEM_3_BODY" x="1255.0" y="271.8844449083577" font-family="var(--font-body)" font-size="20" fill="var(--primary-text)" opacity="0.8" text-anchor="start" data-bg-id="ITEM_3_TEXT_BG" style="font-size: 26px; font-family: Inter, Segoe UI, Kalam, Roboto, Helvetica, Arial, sans-serif; font-weight: 400;" data-final-font-size="26">
      <tspan x="1255.0" dy="26.86px">Expanding rings or jellyfish-</tspan>
      <tspan x="1255.0" dy="29.90px">like forms illuminate</tspan>
      <tspan x="1255.0" dy="29.90px">the upper atmosphere</tspan>
    </text>
    <circle id="ORBITAL_RINGS_ART_NODE_AURA_4" cx="699.6710180769516" cy="850.247999463186" r="58" fill="var(--accent-2)" opacity="0.72" fill-opacity="1.0" stroke="var(--accent-2)" stroke-opacity="1.0"/>
    <circle id="ITEM_4_BORDER" cx="699.6710180769516" cy="850.247999463186" r="42" fill="var(--icon-pad-bg)" stroke="var(--accent-2)" filter="url(#svg6c0f01ed-drop-shadow)" stroke-opacity="1.0"/>
    <circle id="ITEM_4_STROKE" cx="699.6710180769516" cy="850.247999463186" r="34" fill="none" stroke="var(--accent-4)" stroke-width="3" stroke-dasharray="6 4" opacity="0.95"/>
    <!-- Node Icon Placeholder -->
    <circle id="ITEM_4_PAD" cx="703.67" cy="854.25" r="44.80" fill="var(--icon-pad-bg)" stroke="var(--primary-text)" stroke-width="2" opacity="0.9"/>
    <circle id="ITEM_4_PAD_INNER" cx="703.67" cy="854.25" r="34.94" fill="var(--accent-2)" fill-opacity="0.22"/>
    <g id="ITEM_4_ICON" transform="translate(675.6710180769516, 826.247999463186)" data-icon-size="56" stroke-dasharray="6 4">
      <g transform="translate(-8.676760330578508,-8.676760330578508) scale(0.14439669421487603)" vector-effect="non-scaling-stroke" fill="#f1f5f9" fill-opacity="1.0" stroke="none">
        <path fill="#f1f5f9" d="M253.813 15.625c-132.32 0-239.782 107.46-239.782 239.78s107.463 239.782 239.782 239.782s239.782-107.46 239.782-239.78S386.132 15.624 253.814 15.624zm0 17.906c122.653 0 221.906 99.223 221.906 221.876c0 30.738-6.26 59.99-17.533 86.594l-42.343-34.72c-49.613 13.98-110.337 9.033-138.906-60.874l-41.97 152.938c-8.837-45.53-23.35-81.28-47.905-115.22c-19.71 13.855-32.352 32.63-39.72 50.97L88.94 237.03c-17.85 27.32-33.77 56.565-45.032 90.47c-7.744-22.6-11.968-46.852-11.968-72.094c0-26.013 4.484-50.973 12.687-74.156c2.752 6.608 9.27 11.25 16.875 11.25c10.093 0 18.28-8.157 18.28-18.25s-8.187-18.28-18.28-18.28c-2.385 0-4.66.48-6.75 1.31c27.537-55.83 77.83-98.368 138.844-115.5a22 22 0 0 0-.844 6.095c0 12.146 9.823 22 21.97 22c12.144 0 22-9.854 22-22c0-4.99-1.67-9.59-4.47-13.28c7.092-.683 14.29-1.064 21.563-1.064zm18.75 27.657a11.65 11.65 0 0 0-11.657 11.657c0 6.443 5.213 11.687 11.656 11.687s11.688-5.243 11.688-11.686c0-6.444-5.244-11.656-11.688-11.656zM198.03 90.22c-6.02.06-12.132.868-18.218 2.5c-38.945 10.434-62.06 50.46-51.625 89.405s50.463 62.06 89.407 51.625c21.712-5.818 38.48-20.85 47.28-39.75a55 55 0 0 1-26.155 15.75c-29.504 7.905-59.846-9.59-67.75-39.094c-7.907-29.504 9.62-59.813 39.124-67.72c10.41-2.788 20.906-2.417 30.5.533c-12.28-8.598-27.116-13.405-42.563-13.25zm155.282.81c-9.408 0-17.03 7.624-17.03 17.032c0 9.41 7.622 17.032 17.03 17.032c9.41 0 17.032-7.623 17.032-17.03c0-9.41-7.623-17.033-17.03-17.033zm-248.937 27.376c-6.443 0-11.656 5.244-11.656 11.688c0 6.443 5.212 11.656 11.655 11.656s11.656-5.213 11.656-11.656s-5.212-11.688-11.655-11.688m275.688 40.813l-.625 29.843l-28.22 9.812l28.22 9.813l.625 29.843l18.03-23.78l28.563 8.625l-17.03-24.5l17.03-24.53L398.094 183l-18.03-23.78zm-72.094 11.593c-6.445 0-11.658 5.212-11.658 11.656c0 6.442 5.213 11.686 11.657 11.686c6.442 0 11.686-5.244 11.686-11.687c0-6.445-5.244-11.657-11.687-11.657zm139 74.75c-6.445 0-11.658 5.244-11.658 11.687s5.213 11.656 11.657 11.656c6.442 0 11.686-5.213 11.686-11.656s-5.244-11.688-11.687-11.688zm-127.314 3.5c-6.443 0-11.656 5.244-11.656 11.687s5.213 11.656 11.656 11.656a11.65 11.65 0 0 0 11.656-11.656c0-6.443-5.212-11.688-11.656-11.688z" vector-effect="non-scaling-stroke" stroke="none"/>
      </g>
    </g>
    <line x1="668.8172128119977" y1="887.018132732897" x2="639.6710180769516" y2="850.247999463186" stroke="var(--accent-4)" stroke-width="2" stroke-dasharray="2 2" opacity="0.5"/>
    <circle cx="639.6710180769516" cy="850.247999463186" r="3" fill="var(--accent-4)"/>
    <!-- Node 4 Frames -->
    <rect id="ITEM_4_HEAD_FRAME" x="369.67101807695155" y="810.247999463186" width="260" height="40" fill="none" pointer-events="none"/>
    <rect id="ITEM_4_BODY_FRAME" x="249.7" y="850.247999463186" width="380" height="120" fill="none" pointer-events="none"/>
    <rect id="ITEM_4_TEXT_BG" x="231.7" y="796.247999463186" width="416" height="192" rx="22" fill="var(--panel)" fill-opacity="0.94" stroke="var(--primary-text)" stroke-width="2"/>
    <text id="ITEM_4_HEAD" x="629.6710180769516" y="810.247999463186" font-family="var(--font-heading)" font-weight="bold" font-size="28" fill="var(--accent-2)" text-anchor="end" data-bg-id="ITEM_4_TEXT_BG" fill-opacity="1.0" style="font-size: 29px; font-family: Inter, Segoe UI, Kalam, Roboto, Helvetica, Arial, sans-serif; font-weight: 700; letter-spacing:-0.4px;" data-final-font-size="29">
      <tspan x="629.6710180769516" dy="27.98px">High Altitude Glow</tspan>
    </text>
    <text id="ITEM_4_BODY" x="629.7" y="850.247999463186" font-family="var(--font-body)" font-size="20" fill="var(--primary-text)" opacity="0.8" text-anchor="end" data-bg-id="ITEM_4_TEXT_BG" style="font-size: 26px; font-family: Inter, Segoe UI, Kalam, Roboto, Helvetica, Arial, sans-serif; font-weight: 400;" data-final-font-size="26">
      <tspan x="629.7" dy="32.84px">Sudden illumination occurs</tspan>
      <tspan x="629.7" dy="29.90px">without audible thunder nearby</tspan>
    </text>
    <circle id="ORBITAL_RINGS_ART_NODE_AURA_5" cx="1255.6823004558082" cy="892.3804438347299" r="58" fill="var(--accent-3)" opacity="0.72" fill-opacity="1.0" stroke="var(--accent-3)" stroke-opacity="1.0"/>
    <circle id="ITEM_5_BORDER" cx="1255.6823004558082" cy="892.3804438347299" r="42" fill="var(--icon-pad-bg)" stroke="var(--accent-3)" filter="url(#svg6c0f01ed-drop-shadow)" stroke-opacity="1.0"/>
    <circle id="ITEM_5_STROKE" cx="1255.6823004558082" cy="892.3804438347299" r="34" fill="none" stroke="var(--accent-5)" stroke-width="3" stroke-dasharray="6 4" opacity="0.95"/>
    <!-- Node Icon Placeholder -->
    <circle id="ITEM_5_PAD" cx="1259.68" cy="896.38" r="44.80" fill="var(--icon-pad-bg)" stroke="var(--primary-text)" stroke-width="2" opacity="0.9"/>
    <circle id="ITEM_5_PAD_INNER" cx="1259.68" cy="896.38" r="34.94" fill="var(--accent-3)" fill-opacity="0.22"/>
    <g id="ITEM_5_ICON" transform="translate(1231.6823004558082, 868.3804438347299)" data-icon-size="56" stroke-dasharray="6 4">
      <g transform="translate(-13.415111111111106,-13.415111111111106) scale(3.451259259259259)" vector-effect="non-scaling-stroke" stroke-width="2.38" stroke-linecap="round" stroke-linejoin="round" stroke-opacity="1.0">
        <path d="M4 10a7.31 7.31 0 0 0 10 10Z" vector-effect="non-scaling-stroke" fill="none" stroke="#f1f5f9"/>
        <path d="m9 15 3-3" vector-effect="non-scaling-stroke" fill="none" stroke="#f1f5f9"/>
        <path d="M17 13a6 6 0 0 0-6-6" vector-effect="non-scaling-stroke" fill="none" stroke="#f1f5f9"/>
        <path d="M21 13A10 10 0 0 0 11 3" vector-effect="non-scaling-stroke" fill="none" stroke="#f1f5f9"/>
      </g>
    </g>
    <line x1="1286.5361057207622" y1="929.1505771044409" x2="1315.6823004558082" y2="892.3804438347299" stroke="var(--accent-5)" stroke-width="2" stroke-dasharray="2 2" opacity="0.5"/>
    <circle cx="1315.6823004558082" cy="892.3804438347299" r="3" fill="var(--accent-5)"/>
    <!-- Node 5 Frames -->
    <rect id="ITEM_5_HEAD_FRAME" x="1325.6823004558082" y="852.3804438347299" width="260" height="40" fill="none" pointer-events="none"/>
    <rect id="ITEM_5_BODY_FRAME" x="1325.7" y="892.3804438347299" width="380" height="120" fill="none" pointer-events="none"/>
    <rect id="ITEM_5_TEXT_BG" x="1307.6823004558082" y="838.3804438347299" width="416.0176995441918" height="192" rx="22" fill="var(--panel)" fill-opacity="0.94" stroke="var(--primary-text)" stroke-width="2"/>
    <text id="ITEM_5_HEAD" x="1325.6823004558082" y="852.3804438347299" font-family="var(--font-heading)" font-weight="bold" font-size="28" fill="var(--primary-text)" text-anchor="start" data-bg-id="ITEM_5_TEXT_BG" fill-opacity="1.0" style="font-size: 30px; font-family: Inter, Segoe UI, Kalam, Roboto, Helvetica, Arial, sans-serif; font-weight: 700; letter-spacing:-0.4px;" data-final-font-size="30">
      <tspan x="1325.6823004558082" dy="28.25px">Light ning Mapper</tspan>
    </text>
    <text id="ITEM_5_BODY" x="1325.7" y="892.3804438347299" font-family="var(--font-body)" font-size="20" fill="var(--primary-text)" opacity="0.8" text-anchor="start" data-bg-id="ITEM_5_TEXT_BG" style="font-size: 26px; font-family: Inter, Segoe UI, Kalam, Roboto, Helvetica, Arial, sans-serif; font-weight: 400;" data-final-font-size="26">
      <tspan x="1325.7" dy="26.86px">Satellite systems reveal</tspan>
      <tspan x="1325.7" dy="29.90px">active storm cells even</tspan>
      <tspan x="1325.7" dy="29.90px">without local strikes</tspan>
    </text>
  </g>
</svg>
