<?xml version='1.0' encoding='utf-8'?>
<svg xmlns="http://www.w3.org/2000/svg" width="1920" height="1080" viewBox="0 0 1920 1080" data-theme="light">
  <style>
        @font-face {
            font-family: 'Inter';
            src: url('assets/fonts/Inter-Regular.ttf') format('truetype');
            font-weight: 400;
            font-style: normal;
            font-display: swap;
        }
        @font-face {
            font-family: 'Inter';
            src: url('assets/fonts/Inter-Bold.ttf') format('truetype');
            font-weight: 600;
            font-style: normal;
            font-display: swap;
        }
        @font-face {
            font-family: 'Inter';
            src: url('assets/fonts/Inter-Bold.ttf') format('truetype');
            font-weight: 800;
            font-style: normal;
            font-display: swap;
        }
        
:root {
    --background: #f8fafc;
    --panel: #ffffff;
    --primary-text: #0f172a;
    --muted-text: #64748b;
    --inverse-text: #ffffff;
    --border: #e2e8f0;
    --shadow-color: #000000;
    --icon-pad-bg: #1e293b;
    --art-glow: #0891b2;
    --art-glow-opacity: 0.10;
    --art-sheen: #ffffff;
    --art-sheen-opacity: 0.34;
    --art-shadow: #0f172a;
    --art-shadow-opacity: 0.14;
    --art-muted-line: #94a3b8;
    --art-panel-tint: #f1f5f9;
    --font-family: 'Inter', 'Segoe UI', 'Kalam', Roboto, Helvetica, Arial, sans-serif;
    --radius-xl: 16px;
    --font-family-headline: 'Inter', 'Segoe UI', 'Kalam', Roboto, Helvetica, Arial, sans-serif;
    --font-family-body: 'Inter', 'Segoe UI', 'Kalam', Roboto, Helvetica, Arial, sans-serif;
    --font-heading: 'Inter', 'Segoe UI', 'Kalam', Roboto, Helvetica, Arial, sans-serif;
    --font-body: 'Inter', 'Segoe UI', 'Kalam', Roboto, Helvetica, Arial, sans-serif;
    --font-size-h1: 56px;
    --font-size-h2: 40px;
    --font-size-h3: 28px;
    --font-size-body: 24px;
    --font-size-caption: 18px;
    --secondary-text: var(--muted-text);
    --panel-border: var(--border);
    --font-weight-normal: 400;
    --font-weight-medium: 500;
    --font-weight-semibold: 600;
    --font-weight-bold: 700;
    --spacing-gutter-pct: 0.07;
    --spacing-top-pct: 0.15;
    --spacing-bottom-pct: 0.07;
    --spacing-title-y-pct: 0.055;
    --accent-1: #d97706;
    --accent-2: #ea580c;
    --accent-3: #dc2626;
    --accent-4: #65a30d;
    --accent-5: #16a34a;
    --accent-6: #92400e;
}
:root[data-theme="dark"] {
    --background: #0f172a;
    --panel: #1e293b;
    --primary-text: #f1f5f9;
    --muted-text: #94a3b8;
    --inverse-text: #0f172a;
    --border: #334155;
    --shadow-color: #000000;
    --icon-pad-bg: #1e293b;
    --art-glow: #7dd3fc;
    --art-glow-opacity: 0.18;
    --art-sheen: #ffffff;
    --art-sheen-opacity: 0.18;
    --art-shadow: #000000;
    --art-shadow-opacity: 0.28;
    --art-muted-line: #64748b;
    --art-panel-tint: #1e293b;
    --accent-1: #fbbf24;
    --accent-2: #fb923c;
    --accent-3: #f87171;
    --accent-4: #a3e635;
    --accent-5: #4ade80;
    --accent-6: #d4a574;
}
:root[data-theme="light"] {
    --background: #f8fafc;
    --panel: #ffffff;
    --primary-text: #0f172a;
    --muted-text: #64748b;
    --inverse-text: #ffffff;
    --border: #e2e8f0;
    --shadow-color: #000000;
    --icon-pad-bg: #1e293b;
    --art-glow: #0891b2;
    --art-glow-opacity: 0.10;
    --art-sheen: #ffffff;
    --art-sheen-opacity: 0.34;
    --art-shadow: #0f172a;
    --art-shadow-opacity: 0.14;
    --art-muted-line: #94a3b8;
    --art-panel-tint: #f1f5f9;
    --accent-1: #d97706;
    --accent-2: #ea580c;
    --accent-3: #dc2626;
    --accent-4: #65a30d;
    --accent-5: #16a34a;
    --accent-6: #92400e;
}</style>
  <rect x="0" y="0" width="1.92E+3" height="1.08E+3" fill="#252a34" stroke="none" id="programmatic_background"/>
  <line id="HEADER_DECOR" x1="960.0" x2="1080.0" y1="135.0" y2="135.0" stroke="var(--accent-1)" stroke-width="6" stroke-linecap="round"/>
  <defs>
    <pattern id="svg0160387e-napkin-hatch" patternUnits="userSpaceOnUse" width="12" height="12">
      <path d="M -3 12 L 12 -3 M 0 15 L 15 0" fill="none" stroke="var(--primary-text)" stroke-width="1" stroke-opacity="0.05"/>
    </pattern>
    <filter id="svg0160387e-soft-shadow" x="-30%" y="-30%" width="160%" height="160%">
      <feDropShadow dx="0" dy="3" stdDeviation="6" flood-color="#000000" flood-opacity="0.20"/>
    </filter>
    <radialGradient id="svg0160387e-universal-edge-vignette" cx="50%" cy="50%" r="72%">
      <stop offset="0%" stop-color="var(--background)" stop-opacity="0"/>
      <stop offset="72%" stop-color="var(--background)" stop-opacity="0.12"/>
      <stop offset="100%" stop-color="var(--primary-text)" stop-opacity="0.08"/>
    </radialGradient>
    <linearGradient id="svg0160387e-universal-surface-sheen" x1="0%" y1="0%" x2="100%" y2="100%">
      <stop offset="0%" stop-color="var(--art-sheen)" stop-opacity="var(--art-sheen-opacity)"/>
      <stop offset="46%" stop-color="var(--art-sheen)" stop-opacity="0.035"/>
      <stop offset="100%" stop-color="var(--art-panel-tint)" stop-opacity="0.14"/>
    </linearGradient>
    <radialGradient id="svg0160387e-universal-icon-aura" cx="50%" cy="42%" r="64%">
      <stop offset="0%" stop-color="var(--art-glow)" stop-opacity="var(--art-glow-opacity)"/>
      <stop offset="100%" stop-color="var(--background)" stop-opacity="0"/>
    </radialGradient>
    <filter id="svg0160387e-text-glow" x="-20%" y="-20%" width="140%" height="140%">
      <feDropShadow dx="0" dy="0" stdDeviation="2" flood-color="#000000" flood-opacity="0.4"/>
    </filter>
    <filter id="svg0160387e-shadow" x="-30%" y="-30%" width="160%" height="160%">
      <feDropShadow dx="0" dy="2" stdDeviation="3" flood-color="#000000" flood-opacity="0.08"/>
      <feDropShadow dx="0" dy="6" stdDeviation="10" flood-color="#000000" flood-opacity="0.12"/>
    </filter>
    <marker id="svg0160387e-arrowhead" markerWidth="10" markerHeight="7" refX="9" refY="3.5" orient="auto" markerUnits="strokeWidth">
      <polygon points="0 0, 10 3.5, 0 7" fill="var(--muted-text)" opacity="0.6"/>
    </marker>
  </defs>
  <rect id="CANVAS_BG" width="100%" height="100%" fill="var(--background)"/>
  <rect width="100%" height="100%" fill="url(#svg0160387e-napkin-hatch)"/>
  <rect id="UNIVERSAL_EDGE_VIGNETTE" width="100%" height="100%" fill="url(#svg0160387e-universal-edge-vignette)" opacity="0.62"/>
  <text id="TITLE" x="960.0" y="59" text-anchor="middle" font-size="56" font-weight="800" fill="#0f172a" style="font-size: 60px; font-family: Inter, Segoe UI, Kalam, Roboto, Helvetica, Arial, sans-serif; font-weight: 700; letter-spacing:-1.2px;" data-final-font-size="60">
    <tspan x="960.0" dy="68.00px">Stellarium vs. Reality</tspan>
  </text>
  <rect id="TITLE_FRAME" x="134" y="59" width="1652" height="103" fill="none"/>
  <line x1="687.0" y1="434.0" x2="768.0" y2="434.0" stroke="var(--muted-text)" stroke-width="4" stroke-dasharray="10 9" opacity="0.8"/>
  <circle cx="727.5" cy="434.0" r="34" fill="var(--panel)" stroke="var(--muted-text)" stroke-width="2"/>
  <text x="727.5" y="444.0" text-anchor="middle" font-size="34" font-weight="900" fill="var(--muted-text)">VS</text>
  <line x1="1152.0" y1="434.0" x2="1233.0" y2="434.0" stroke="var(--muted-text)" stroke-width="4" stroke-dasharray="10 9" opacity="0.8"/>
  <circle cx="1192.5" cy="434.0" r="34" fill="var(--panel)" stroke="var(--muted-text)" stroke-width="2"/>
  <text x="1192.5" y="444.0" text-anchor="middle" font-size="34" font-weight="900" fill="var(--muted-text)">VS</text>
  <line x1="882.0" y1="824.0" x2="1038.0" y2="824.0" stroke="var(--muted-text)" stroke-width="4" stroke-dasharray="10 9" opacity="0.8"/>
  <circle cx="960.0" cy="824.0" r="34" fill="var(--panel)" stroke="var(--muted-text)" stroke-width="2"/>
  <text x="960.0" y="834.0" text-anchor="middle" font-size="34" font-weight="900" fill="var(--muted-text)">VS</text>
  <g transform="translate(495.0, 280.0)" filter="url(#svg0160387e-soft-shadow)">
    <rect id="ITEM_1_BG" x="-200.0" y="0" width="400.0" height="360" rx="26" fill="var(--panel)" fill-opacity="0.95" stroke="var(--accent-1)" stroke-width="3"/>
    <rect x="-184.0" y="12" width="368.0" height="8" rx="4" fill="var(--accent-1)" fill-opacity="0.55"/>
    <circle id="ITEM_1_PAD" cx="0" cy="74" r="46" fill="var(--icon-pad-bg)" stroke="var(--primary-text)" opacity="0.9" fill-opacity="0.9" stroke-width="2"/>
    <circle id="ITEM_1_PAD_INNER" cx="0" cy="74" r="35.88" fill="var(--accent-3)" fill-opacity="0.22"/>
    <circle cx="0" cy="74" r="36" fill="none" stroke="var(--accent-1)" stroke-width="3" stroke-dasharray="6 4"/>
    <g id="ITEM_1_ICON" transform="translate(-34, 40)" data-icon-size="68" stroke-dasharray="6 4">
      <g transform="translate(-7.005714285714289,-7.005714285714289) scale(2.562857142857143)">
        <path d="M27.9999 20L15.9999 19L3.99992 20L2.01992 28.8911C1.9104 29.657 2.99521 29.5 3.49992 29.5H28.4999C29.0046 29.5 30.0894 29.657 29.9799 28.8911L27.9999 20Z" fill="#D3D3D3"/>
        <path d="M27 2H5C4.45 2 4 2.45 4 3V19.99H28V3C28 2.45 27.55 2 27 2Z" fill="#7167A4"/>
        <path d="M5 18.74V3.25C5 3.11 5.11 3 5.25 3H26.75C26.89 3 27 3.11 27 3.25V18.74C27 18.88 26.89 18.99 26.75 18.99H5.25C5.11 18.99 5 18.88 5 18.74Z" fill="#26C9FC"/>
        <path fill-rule="evenodd" clip-rule="evenodd" d="M27.27 21.28L27.99 24.53C28.04 24.77 27.86 24.99 27.62 24.99H4.37997C4.13997 24.99 3.95997 24.76 4.00997 24.53L4.72997 21.28C4.76997 21.11 4.91997 20.99 5.09997 20.99H26.9C27.08 20.99 27.23 21.11 27.27 21.28ZM8.18555 24.5H6.75344L6.87845 23.75H8.2793L8.18555 24.5ZM10.1241 24.5H8.68944L8.7832 23.75H10.1866L10.1241 24.5ZM11.9623 24.5H10.6259L10.6884 23.75H11.9936L11.9623 24.5ZM13.8123 24.5H12.4627L12.494 23.75H13.8435L13.8123 24.5ZM15.75 24.5H14.3127L14.344 23.75H15.75V24.5ZM17.6873 24.5H16.25V23.75H17.656L17.6873 24.5ZM19.5373 24.5H18.1877L18.1565 23.75H19.506L19.5373 24.5ZM21.3741 24.5H20.0377L20.0064 23.75H21.3116L21.3741 24.5ZM23.3106 24.5H21.8759L21.8134 23.75H23.2168L23.3106 24.5ZM25.2466 24.5H23.8145L23.7207 23.75H25.1216L25.2466 24.5ZM27 24.5H25.7535L25.6284 23.75H26.875L27 24.5ZM26.6667 22.5L26.7917 23.25H25.5451L25.4201 22.5H26.6667ZM26.5 21.5L26.5833 22H25.3368L25.2535 21.5H26.5ZM23.4395 21.5H24.7466L24.8299 22H23.5019L23.4395 21.5ZM21.6259 21.5H22.9356L22.9981 22H21.6675L21.6259 21.5ZM19.9127 21.5H21.1241L21.1658 22H19.9335L19.9127 21.5ZM18.0627 21.5H19.4123L19.4331 22H18.0835L18.0627 21.5ZM16.25 21.5H17.5623L17.5831 22H16.25V21.5ZM14.4377 21.5H15.75V22H14.4169L14.4377 21.5ZM12.5877 21.5H13.9373L13.9164 22H12.5669L12.5877 21.5ZM10.8759 21.5H12.0873L12.0665 22H10.8342L10.8759 21.5ZM9.06444 21.5H10.3741L10.3325 22H9.00195L9.06444 21.5ZM7.25344 21.5H8.56055L8.49805 22H7.17012L7.25344 21.5ZM5.5 21.5H6.74655L6.66322 22H5.41667L5.5 21.5ZM5.20834 23.25L5.33334 22.5H6.57989L6.45489 23.25H5.20834ZM5 24.5L5.12501 23.75H6.37155L6.24655 24.5H5ZM25.0382 23.25L24.9132 22.5H23.5644L23.6582 23.25H25.0382ZM23.1543 23.25L23.0606 22.5H21.7092L21.7717 23.25H23.1543ZM21.27 23.25L21.2075 22.5H19.9544L19.9856 23.25H21.27ZM19.4852 23.25L19.4539 22.5H18.1044L18.1356 23.25H19.4852ZM17.6352 23.25L17.6039 22.5H16.25V23.25H17.6352ZM7.08678 22.5L6.96178 23.25H8.3418L8.43555 22.5H7.08678ZM8.93945 22.5L8.8457 23.25H10.2283L10.2908 22.5H8.93945ZM10.7925 22.5L10.73 23.25H12.0144L12.0456 22.5H10.7925ZM12.5461 22.5L12.5148 23.25H13.8644L13.8956 22.5H12.5461ZM14.3961 22.5L14.3648 23.25H15.75V22.5H14.3961Z" fill="#9B9B9B"/>
        <path d="M29.09 29C29.44 29 29.74 28.8 29.89 28.51L29.98 28.89L29.9834 28.9133C29.9921 28.9736 30 29.0279 30 29.09C30 29.59 29.59 30 29.09 30H2.91C2.41 30 2 29.59 2 29.09C2 29.02 2.01 28.96 2.03 28.9L2.11 28.52C2.26 28.8 2.56 29 2.91 29H29.09Z" fill="#9B9B9B"/>
        <path d="M10.82 27.99H21.18C21.34 27.99 21.46 27.84 21.42 27.68L21.04 26.18C21.01 26.07 20.91 25.99 20.8 25.99H11.2C11.09 25.99 10.99 26.07 10.96 26.18L10.58 27.68C10.54 27.84 10.66 27.99 10.82 27.99Z" fill="#9B9B9B"/>
      </g>
    </g>
    <text id="ITEM_1_HEAD" x="0.0" y="138.0" text-anchor="middle" font-size="44" font-weight="800" fill="var(--accent-3)" data-bg-id="ITEM_1_BG" fill-opacity="1.0" style="font-size: 30px; font-family: Inter, Segoe UI, Kalam, Roboto, Helvetica, Arial, sans-serif; font-weight: 700; letter-spacing:-0.4px;" data-final-font-size="30">
      <tspan x="0.0" dy="42.25px">Desktop vs Web</tspan>
    </text>
    <rect id="ITEM_1_HEAD_FRAME" x="-165.0" y="138" width="330.0" height="68" fill="none"/>
    <text id="ITEM_1_BODY" x="0.0" y="206.0" text-anchor="middle" font-size="27" fill="var(--primary-text)" data-bg-id="ITEM_1_BG" style="font-size: 26px; font-family: Inter, Segoe UI, Kalam, Roboto, Helvetica, Arial, sans-serif; font-weight: 400;" data-final-font-size="26">
      <tspan x="0.0" dy="39.64px">Different installations show</tspan>
      <tspan x="0.0" dy="29.90px">varying star visibility</tspan>
    </text>
    <rect id="ITEM_1_BODY_FRAME" x="-190.0" y="206" width="380" height="154" fill="none"/>
  </g>
  <g transform="translate(960.0, 280.0)" filter="url(#svg0160387e-soft-shadow)">
    <rect id="ITEM_2_BG" x="-200.0" y="0" width="400.0" height="360" rx="26" fill="var(--panel)" fill-opacity="0.95" stroke="var(--accent-2)" stroke-width="3"/>
    <rect x="-184.0" y="12" width="368.0" height="8" rx="4" fill="var(--accent-2)" fill-opacity="0.55"/>
    <circle id="ITEM_2_PAD" cx="0" cy="74" r="46" fill="var(--icon-pad-bg)" stroke="var(--primary-text)" opacity="0.9" fill-opacity="0.9" stroke-width="2"/>
    <circle id="ITEM_2_PAD_INNER" cx="0" cy="74" r="35.88" fill="var(--accent-4)" fill-opacity="0.22"/>
    <circle cx="0" cy="74" r="36" fill="none" stroke="var(--accent-2)" stroke-width="3" stroke-dasharray="6 4"/>
    <g id="ITEM_2_ICON" transform="translate(-34, 40)" data-icon-size="68" stroke-dasharray="6 4">
      <g transform="translate(-7.005714285714289,-7.005714285714289) scale(2.562857142857143)">
        <path d="M23.6231 21.4249L24.6179 22.4209C25.1551 22.9587 26.0206 22.9587 26.5578 22.4209L29.7015 19.2737C30.0995 18.8753 30.0995 18.2379 29.7015 17.8395L23.8718 12.0033C23.6927 11.824 23.6927 11.5452 23.8718 11.3659C23.9812 11.2564 24.1304 11.2165 24.2697 11.2464C25.2148 11.4058 26.2196 11.1269 26.9458 10.3999C28.1496 9.19476 28.1396 7.23276 26.916 6.03762L26.0604 5.17115L25.6724 5.30063C24.6975 5.0118 23.6032 5.22095 22.7973 5.91811C21.9617 6.64515 21.6234 7.71081 21.7826 8.70675C21.8025 8.85614 21.7627 8.99557 21.6533 9.10513L21.6334 9.12505C21.4543 9.30432 21.1758 9.30432 20.9967 9.12505L15.1669 3.29878C14.769 2.90041 14.1323 2.90041 13.7343 3.29878L10.6205 6.41608C10.5409 6.49576 10.4812 6.58539 10.4215 6.67503L10.2126 6.46588L9.47642 7.20288L10.6205 8.34821L10.6404 8.36813C10.9189 8.64699 11.297 8.79638 11.685 8.77647C12.5803 8.73663 13.4956 9.08521 14.1422 9.83216C15.1271 10.9675 15.1371 12.6905 14.1422 13.8359C12.9683 15.1903 10.9189 15.2501 9.66544 14.0052C9.01879 13.3578 8.72034 12.5013 8.78003 11.6547C8.79993 11.2663 8.66065 10.8879 8.38209 10.609C8.37214 10.5891 8.3622 10.5791 8.35225 10.5692L7.3773 9.59314L6.94952 10.0314L7.13854 10.2206C6.87988 10.2704 6.64112 10.3999 6.44215 10.599L3.29845 13.7462C2.90052 14.1446 2.90052 14.782 3.29845 15.1804L9.13817 21.0266C9.31724 21.2058 9.31724 21.4847 9.13817 21.664C9.02874 21.7735 8.87951 21.8134 8.74024 21.7835C7.73545 21.6142 6.66102 21.9428 5.92483 22.7794C4.92999 23.9148 4.92004 25.6477 5.91489 26.7931C7.0888 28.1475 9.13817 28.2073 10.3917 26.9524C11.108 26.2353 11.3965 25.2394 11.2472 24.3132C11.2273 24.1638 11.2671 24.0243 11.3766 23.9148L11.3965 23.8949C11.5755 23.7156 11.8541 23.7156 12.0332 23.8949L17.8331 29.7012C18.231 30.0996 18.8677 30.0996 19.2657 29.7012L22.3795 26.5839C22.9167 26.0461 22.9167 25.1796 22.3795 24.6418L22.3596 24.6219L21.4742 23.7355L21.0862 24.1239L21.1957 24.2335C20.3401 24.2335 19.4845 23.8849 18.8677 23.1778C17.8828 22.0424 17.8729 20.3194 18.8677 19.1741C20.0416 17.8196 22.091 17.7599 23.3445 19.0048C23.8618 19.5227 24.1603 20.19 24.22 20.8672L24.2001 20.8473L23.6231 21.4249Z" fill="#D3D3D3"/>
        <path d="M21.7702 4.90923C20.9348 5.63653 20.5967 6.70258 20.7558 7.69889C20.7757 7.84834 20.7359 7.98782 20.6265 8.09742L20.6066 8.11734C20.4276 8.29668 20.1492 8.29668 19.9702 8.11734L14.1525 2.29889C13.7547 1.90037 13.1182 1.90037 12.7204 2.29889L9.60773 5.41734C9.07072 5.95535 9.07072 6.82214 9.60773 7.36015L9.63757 7.38007C9.90608 7.64908 10.284 7.79852 10.6718 7.7786C11.5669 7.73875 12.4818 8.08745 13.1282 8.83469C14.1127 9.97048 14.1227 11.6941 13.1282 12.8399C11.9547 14.1948 9.90608 14.2546 8.65304 13.0092C8.01657 12.3517 7.71823 11.4948 7.76796 10.648C7.79779 10.2594 7.64862 9.87085 7.37017 9.60185C6.83315 9.06384 5.96796 9.06384 5.43094 9.60185L2.29834 12.7402C1.90055 13.1387 1.90055 13.7764 2.29834 14.1749L8.13591 20.0232C8.31492 20.2026 8.31492 20.4815 8.13591 20.6609C8.02652 20.7705 7.87735 20.8103 7.73812 20.7804C6.7337 20.6111 5.65967 20.9399 4.92376 21.7768C3.92928 22.9125 3.91934 24.6461 4.91381 25.7919C6.08729 27.1469 8.13591 27.2066 9.38895 25.9513C10.105 25.2339 10.3934 24.2376 10.2442 23.3111C10.2243 23.1616 10.2641 23.0221 10.3735 22.9125L10.3934 22.8926C10.5724 22.7133 10.8508 22.7133 11.0298 22.8926L16.8276 28.7011C17.2254 29.0996 17.8619 29.0996 18.2597 28.7011L21.3724 25.5827C21.9094 25.0447 21.9094 24.1779 21.3724 23.6399L21.3525 23.6199C21.084 23.3509 20.7061 23.2015 20.3182 23.2214C19.4232 23.2613 18.5083 22.9125 17.8619 22.1653C16.8773 21.0295 16.8674 19.3059 17.8619 18.1601C19.0354 16.8052 21.084 16.7454 22.337 17.9908C22.9834 18.6384 23.2818 19.4952 23.2221 20.3421C23.2022 20.7306 23.3414 21.1092 23.6199 21.3882C24.1569 21.9262 25.0221 21.9262 25.5591 21.3882L28.7017 18.2399C29.0994 17.8413 29.0994 17.2037 28.7017 16.8052L22.874 10.9668C22.695 10.7875 22.695 10.5085 22.874 10.3292C22.9834 10.2196 23.1326 10.1797 23.2718 10.2096C24.2166 10.369 25.221 10.09 25.947 9.36273C27.1901 8.11734 27.1403 6.05498 25.7779 4.87934C24.6243 3.92288 22.9039 3.92288 21.7702 4.90923Z" fill="#C3EF3C"/>
      </g>
    </g>
    <text id="ITEM_2_HEAD" x="0.0" y="138.0" text-anchor="middle" font-size="44" font-weight="800" fill="var(--primary-text)" data-bg-id="ITEM_2_BG" fill-opacity="1.0" style="font-size: 30px; font-family: Inter, Segoe UI, Kalam, Roboto, Helvetica, Arial, sans-serif; font-weight: 700; letter-spacing:-0.4px;" data-final-font-size="30">
      <tspan x="0.0" dy="42.25px">Star Catalogue</tspan>
    </text>
    <rect id="ITEM_2_HEAD_FRAME" x="-165.0" y="138" width="330.0" height="68" fill="none"/>
    <text id="ITEM_2_BODY" x="0.0" y="206.0" text-anchor="middle" font-size="27" fill="var(--primary-text)" data-bg-id="ITEM_2_BG" style="font-size: 26px; font-family: Inter, Segoe UI, Kalam, Roboto, Helvetica, Arial, sans-serif; font-weight: 400;" data-final-font-size="26">
      <tspan x="0.0" dy="39.64px">Active plugins alter star</tspan>
      <tspan x="0.0" dy="29.90px">brightness and count</tspan>
    </text>
    <rect id="ITEM_2_BODY_FRAME" x="-190.0" y="206" width="380" height="154" fill="none"/>
  </g>
  <g transform="translate(1425.0, 280.0)" filter="url(#svg0160387e-soft-shadow)">
    <rect id="ITEM_3_BG" x="-200.0" y="0" width="400.0" height="360" rx="26" fill="var(--panel)" fill-opacity="0.95" stroke="var(--accent-3)" stroke-width="3"/>
    <rect x="-184.0" y="12" width="368.0" height="8" rx="4" fill="var(--accent-3)" fill-opacity="0.55"/>
    <circle id="ITEM_3_PAD" cx="0" cy="74" r="46" fill="var(--icon-pad-bg)" stroke="var(--primary-text)" opacity="0.9" fill-opacity="0.9" stroke-width="2"/>
    <circle id="ITEM_3_PAD_INNER" cx="0" cy="74" r="35.88" fill="var(--accent-5)" fill-opacity="0.22"/>
    <circle cx="0" cy="74" r="36" fill="none" stroke="var(--accent-3)" stroke-width="3" stroke-dasharray="6 4"/>
    <g id="ITEM_3_ICON" transform="translate(-34, 40)" data-icon-size="68" stroke-dasharray="6 4">
      <g transform="translate(-7.005714285714289,-9.24821428571429) scale(2.562857142857143)">
        <path d="M8.97695 9.81822C7.68369 9.81822 7.53001 10.5467 7.61483 10.9109V25.3158L24.7324 27.2146L30.0002 22.5V15.0422L23.1876 8.26566L22.8596 8.02197L15.5002 9L12.4142 8.02197C12.2033 8.15625 11.951 8.32512 11.8094 8.46545C10.993 9.27463 10.3546 9.81822 8.97695 9.81822Z" fill="#8C5543"/>
        <path d="M13.6198 9.31063C13.035 9.08884 12.4462 8.80135 11.8037 8.47407C12.4581 7.81966 14.0595 6.21636 15.2299 5.03847C16.6928 3.5661 18.656 3.69821 19.9679 5.03847C20.2326 5.30884 20.5296 5.60931 20.8363 5.91774C18.5156 7.0625 16.3906 7.6875 13.6198 9.31063Z" fill="#CDC4D6"/>
        <path d="M13.1558 9.12228C14.1001 9.52955 15.0007 9.7862 16.0606 9.7862C17.6085 9.7862 18.8166 9.19163 19.4207 8.87073C20.0247 8.54982 21.0818 8.2006 21.9973 8.2006C22.7003 8.2006 23.0885 8.25855 23.2104 8.29102C22.8107 7.89374 22.362 7.44613 21.9279 7.00997C21.5508 6.63436 21.1458 6.22946 20.7593 5.84035C19.4543 4.68908 17.6172 4.64256 16.23 6.03871C15.2344 7.04072 13.9269 8.35058 13.1558 9.12228Z" fill="#F4F4F4"/>
        <path d="M5.96834 11.2402C5.07024 12.3299 2.95313 14.8594 2.00684 15.9879V22.5L16 27.8125L22.9724 25.3105L15.8325 18.1406C14.7667 17.0629 13.3627 16.2097 11.7162 16.2097C9.99483 16.2097 8.99195 14.7428 8.99195 13.0065C8.99195 10.9666 12.3886 10.1728 13.1604 9.12524C12.4433 8.81133 12.1057 8.64478 11.8209 8.46558C10.6252 9.68774 9.79822 9.78931 9.29321 9.78931C8.96166 9.78931 7.59646 9.61208 5.96834 11.2402Z" fill="#7D4533"/>
        <path d="M11.0125 23.0202C7.06082 21.6581 4.12549 21.9275 2 22.4664V29.9955H30V22.4609C26.8267 23.8679 23.4212 25.0261 20.0084 25.0261C16.5956 25.0261 14.9641 24.3824 11.0125 23.0202Z" fill="#00D26A"/>
      </g>
    </g>
    <text id="ITEM_3_HEAD" x="0.0" y="138.0" text-anchor="middle" font-size="44" font-weight="800" fill="var(--primary-text)" data-bg-id="ITEM_3_BG" fill-opacity="1.0" style="font-size: 30px; font-family: Inter, Segoe UI, Kalam, Roboto, Helvetica, Arial, sans-serif; font-weight: 700; letter-spacing:-0.4px;" data-final-font-size="30">
      <tspan x="0.0" dy="42.25px">Horizon Line</tspan>
    </text>
    <rect id="ITEM_3_HEAD_FRAME" x="-165.0" y="138" width="330.0" height="68" fill="none"/>
    <text id="ITEM_3_BODY" x="0.0" y="206.0" text-anchor="middle" font-size="27" fill="var(--primary-text)" data-bg-id="ITEM_3_BG" style="font-size: 26px; font-family: Inter, Segoe UI, Kalam, Roboto, Helvetica, Arial, sans-serif; font-weight: 400;" data-final-font-size="26">
      <tspan x="0.0" dy="39.64px">Custom skylines block low-</tspan>
      <tspan x="0.0" dy="29.90px">altitude objects</tspan>
    </text>
    <rect id="ITEM_3_BODY_FRAME" x="-190.0" y="206" width="380" height="154" fill="none"/>
  </g>
  <g transform="translate(690.0, 670.0)" filter="url(#svg0160387e-soft-shadow)">
    <rect id="ITEM_4_BG" x="-200.0" y="0" width="400.0" height="360" rx="26" fill="var(--panel)" fill-opacity="0.95" stroke="var(--accent-4)" stroke-width="3"/>
    <rect x="-184.0" y="12" width="368.0" height="8" rx="4" fill="var(--accent-4)" fill-opacity="0.55"/>
    <circle id="ITEM_4_PAD" cx="0" cy="74" r="46" fill="var(--icon-pad-bg)" stroke="var(--primary-text)" opacity="0.9" fill-opacity="0.9" stroke-width="2"/>
    <circle id="ITEM_4_PAD_INNER" cx="0" cy="74" r="35.88" fill="var(--accent-6)" fill-opacity="0.22"/>
    <circle cx="0" cy="74" r="36" fill="none" stroke="var(--accent-4)" stroke-width="3" stroke-dasharray="6 4"/>
    <g id="ITEM_4_ICON" transform="translate(-34, 40)" data-icon-size="68" stroke-dasharray="6 4">
      <g transform="translate(-4.920677966101698,-8.265423728813563) scale(3.243389830508475)" vector-effect="non-scaling-stroke" stroke-width="2.53" stroke-linecap="round" stroke-linejoin="round" stroke-opacity="1.0">
        <path d="M19 17h2c.6 0 1-.4 1-1v-3c0-.9-.7-1.7-1.5-1.9C18.7 10.6 16 10 16 10s-1.3-1.4-2.2-2.3c-.5-.4-1.1-.7-1.8-.7H5c-.6 0-1.1.4-1.4.9l-1.4 2.9A3.7 3.7 0 0 0 2 12v4c0 .6.4 1 1 1h2" vector-effect="non-scaling-stroke" fill="none" stroke="#f1f5f9"/>
        <circle cx="7" cy="17" r="2" vector-effect="non-scaling-stroke" fill="none" stroke="#f1f5f9"/>
        <path d="M9 17h6" vector-effect="non-scaling-stroke" fill="none" stroke="#f1f5f9"/>
        <circle cx="17" cy="17" r="2" vector-effect="non-scaling-stroke" fill="none" stroke="#f1f5f9"/>
      </g>
    </g>
    <text id="ITEM_4_HEAD" x="0.0" y="138.0" text-anchor="middle" font-size="44" font-weight="800" fill="var(--accent-6)" data-bg-id="ITEM_4_BG" fill-opacity="1.0" style="font-size: 30px; font-family: Inter, Segoe UI, Kalam, Roboto, Helvetica, Arial, sans-serif; font-weight: 700; letter-spacing:-0.4px;" data-final-font-size="30">
      <tspan x="0.0" dy="42.25px">Motion Parallax</tspan>
    </text>
    <rect id="ITEM_4_HEAD_FRAME" x="-165.0" y="138" width="330.0" height="68" fill="none"/>
    <text id="ITEM_4_BODY" x="0.0" y="206.0" text-anchor="middle" font-size="27" fill="var(--primary-text)" data-bg-id="ITEM_4_BG" style="font-size: 26px; font-family: Inter, Segoe UI, Kalam, Roboto, Helvetica, Arial, sans-serif; font-weight: 400;" data-final-font-size="26">
      <tspan x="0.0" dy="39.64px">Moving observer changes</tspan>
      <tspan x="0.0" dy="29.90px">apparent object position</tspan>
    </text>
    <rect id="ITEM_4_BODY_FRAME" x="-190.0" y="206" width="380" height="154" fill="none"/>
  </g>
  <g transform="translate(1230.0, 670.0)" filter="url(#svg0160387e-soft-shadow)">
    <rect id="ITEM_5_BG" x="-200.0" y="0" width="400.0" height="360" rx="26" fill="var(--panel)" fill-opacity="0.95" stroke="var(--accent-5)" stroke-width="3"/>
    <rect x="-184.0" y="12" width="368.0" height="8" rx="4" fill="var(--accent-5)" fill-opacity="0.55"/>
    <circle id="ITEM_5_PAD" cx="0" cy="74" r="46" fill="var(--icon-pad-bg)" stroke="var(--primary-text)" opacity="0.9" fill-opacity="0.9" stroke-width="2"/>
    <circle id="ITEM_5_PAD_INNER" cx="0" cy="74" r="35.88" fill="var(--accent-1)" fill-opacity="0.22"/>
    <circle cx="0" cy="74" r="36" fill="none" stroke="var(--accent-5)" stroke-width="3" stroke-dasharray="6 4"/>
    <g id="ITEM_5_ICON" transform="translate(-34, 40)" data-icon-size="68" stroke-dasharray="6 4">
      <g transform="translate(-4.920677966101698,-4.920677966101698) scale(3.243389830508475)" vector-effect="non-scaling-stroke" stroke-width="2.53" stroke-linecap="round" stroke-linejoin="round" stroke-opacity="1.0">
        <circle cx="12" cy="12" r="10" vector-effect="non-scaling-stroke" fill="none" stroke="#f1f5f9"/>
        <path d="M12 2a14.5 14.5 0 0 0 0 20 14.5 14.5 0 0 0 0-20" vector-effect="non-scaling-stroke" fill="none" stroke="#f1f5f9"/>
        <path d="M2 12h20" vector-effect="non-scaling-stroke" fill="none" stroke="#f1f5f9"/>
      </g>
    </g>
    <text id="ITEM_5_HEAD" x="0.0" y="138.0" text-anchor="middle" font-size="44" font-weight="800" fill="var(--primary-text)" data-bg-id="ITEM_5_BG" fill-opacity="1.0" style="font-size: 30px; font-family: Inter, Segoe UI, Kalam, Roboto, Helvetica, Arial, sans-serif; font-weight: 700; letter-spacing:-0.4px;" data-final-font-size="30">
      <tspan x="0.0" dy="42.25px">Light Pollution</tspan>
    </text>
    <rect id="ITEM_5_HEAD_FRAME" x="-165.0" y="138" width="330.0" height="68" fill="none"/>
    <text id="ITEM_5_BODY" x="0.0" y="206.0" text-anchor="middle" font-size="27" fill="var(--primary-text)" data-bg-id="ITEM_5_BG" style="font-size: 26px; font-family: Inter, Segoe UI, Kalam, Roboto, Helvetica, Arial, sans-serif; font-weight: 400;" data-final-font-size="26">
      <tspan x="0.0" dy="39.64px">City glow dims faint stars</tspan>
      <tspan x="0.0" dy="29.90px">in rendering</tspan>
    </text>
    <rect id="ITEM_5_BODY_FRAME" x="-190.0" y="206" width="380" height="154" fill="none"/>
  </g>
</svg>
